<?xml version="1.0" encoding="utf-8"?>
<!-- Generator: Adobe Illustrator 27.8.0, SVG Export Plug-In . SVG Version: 6.00 Build 0)  -->
<svg version="1.1" id="Layer_1" xmlns="http://www.w3.org/2000/svg" xmlns:xlink="http://www.w3.org/1999/xlink" x="0px" y="0px"
	 viewBox="0 0 200 200" style="enable-background:new 0 0 200 200;" xml:space="preserve">
<style type="text/css">
	.st0{fill:#FFBE0E;}
</style>
<g>
	<path class="st0" d="M153.3,145.95C153.3,145.95,153.29,145.95,153.3,145.95h-13.55v-13.53c0-1.13-0.93-2.05-2.07-2.06
		c0,0-0.01,0-0.01,0c-1.14,0-2.07,0.93-2.07,2.07v13.52h-13.53c0,0-0.01,0-0.01,0c-0.56,0-1.08,0.21-1.47,0.6
		c-0.39,0.39-0.61,0.91-0.61,1.46c0,0.55,0.21,1.08,0.6,1.47c0.39,0.39,0.91,0.61,1.46,0.61h13.56v13.5c0,1.15,0.92,2.09,2.07,2.09
		c0.57,0,1.09-0.22,1.48-0.61c0.39-0.39,0.6-0.91,0.6-1.47V150.1h13.53c0,0,0.01,0,0.01,0c0.56,0,1.08-0.21,1.47-0.6
		c0.39-0.39,0.61-0.91,0.61-1.46c0-0.57-0.22-1.09-0.61-1.48C154.37,146.17,153.85,145.95,153.3,145.95z"/>
	<path class="st0" d="M137.69,105.9c-23.26,0-42.18,18.89-42.18,42.11s18.92,42.11,42.18,42.11c23.24,0,42.14-18.89,42.14-42.11
		S160.93,105.9,137.69,105.9z M137.69,185.96c-10.72,0-20.98-4.53-28.16-12.42l-0.16-0.18c-0.15-0.16-0.3-0.33-0.45-0.5
		c-4.91-5.66-8-12.59-8.95-20.03c-0.04-0.32-0.08-0.63-0.11-0.96c-0.13-1.27-0.19-2.57-0.19-3.88c0-0.33,0-0.65,0.01-0.98
		c0.03-1.27,0.13-2.57,0.3-3.86c0.04-0.32,0.08-0.64,0.13-0.95c2.84-18.64,18.65-32.17,37.59-32.17c20.95,0,37.99,17.03,37.99,37.96
		C175.68,168.94,158.64,185.96,137.69,185.96z"/>
	<path class="st0" d="M85.65,164.45c0-1.13-0.93-2.06-2.07-2.07H33.55v-17.23c0-14.89,5.75-28.83,16.19-39.25
		c10.44-10.42,24.4-16.16,39.32-16.16c9.7,0,19.23,2.51,27.56,7.26c1,0.57,2.27,0.23,2.84-0.76c0.27-0.48,0.35-1.04,0.2-1.57
		c-0.15-0.53-0.49-0.98-0.97-1.26c-3.38-1.93-6.97-3.52-10.67-4.76l-4.74-1.58l4.22-2.66c10.18-6.42,16.26-17.39,16.26-29.34
		c0-19.1-15.57-34.64-34.7-34.64s-34.7,15.54-34.7,34.64c0,11.95,6.08,22.92,16.26,29.34l4.22,2.66l-4.73,1.58
		c-24.35,8.12-40.7,30.83-40.7,56.5v19.29c0,1.15,0.92,2.09,2.07,2.09h52.13c0.54,0,1.06-0.22,1.46-0.61
		C85.44,165.53,85.65,165.01,85.65,164.45z M58.5,55.07c0-16.82,13.71-30.5,30.56-30.5s30.56,13.68,30.56,30.5
		c0,16.83-13.71,30.52-30.56,30.52C72.21,85.59,58.5,71.9,58.5,55.07z"/>
</g>
</svg>
