<?xml version="1.0" encoding="utf-8"?>
<!-- Generator: Adobe Illustrator 27.8.0, SVG Export Plug-In . SVG Version: 6.00 Build 0)  -->
<svg version="1.1" id="Layer_1" xmlns="http://www.w3.org/2000/svg" xmlns:xlink="http://www.w3.org/1999/xlink" x="0px" y="0px"
	 viewBox="0 0 200 200" style="enable-background:new 0 0 200 200;" xml:space="preserve">
<style type="text/css">
	.st0{fill:#FFBE0E;}
</style>
<g>
	<path class="st0" d="M120.8,168.05H76.02c-1.05,0-1.9,0.85-1.9,1.9c0,1.05,0.85,1.9,1.9,1.9c0,0,0,0,0,0h44.78
		c1.05,0,1.9-0.85,1.9-1.9C122.7,168.9,121.85,168.05,120.8,168.05z"/>
	<path class="st0" d="M76.9,118.24L76.9,118.24c4.49,0,8.14-3.65,8.14-8.14c0-4.49-3.65-8.14-8.14-8.15c0,0,0,0,0,0
		c-4.49,0-8.14,3.65-8.14,8.14C68.76,114.59,72.42,118.24,76.9,118.24z M76.9,105.75c2.4,0,4.35,1.95,4.35,4.35
		c0,2.4-1.95,4.35-4.35,4.35c-2.4,0-4.35-1.95-4.35-4.35C72.55,107.7,74.5,105.75,76.9,105.75z"/>
	<path class="st0" d="M76.89,140.51c4.49-0.01,8.14-3.65,8.16-8.13c0.01-4.49-3.64-8.15-8.13-8.16c0,0-0.01,0-0.01,0
		c-2.17,0-4.21,0.84-5.75,2.38c-1.54,1.54-2.39,3.58-2.39,5.76C68.75,136.84,72.4,140.5,76.89,140.51z M76.9,128.03
		c2.4,0,4.35,1.95,4.35,4.35c0,2.4-1.95,4.35-4.35,4.35c-2.4,0-4.35-1.95-4.35-4.35C72.55,129.98,74.5,128.03,76.9,128.03z"/>
	<path class="st0" d="M126.17,134.51c0.51,0,0.98-0.2,1.34-0.56c0.36-0.36,0.56-0.84,0.56-1.34v-0.01c0-1.04-0.85-1.89-1.9-1.89
		H93.33c-0.99,0.03-1.8,0.84-1.82,1.85c-0.01,0.51,0.17,0.99,0.52,1.36c0.35,0.37,0.82,0.58,1.33,0.59L126.17,134.51z"/>
	<path class="st0" d="M140.69,9.39H56.13c-7.76,0.01-14.09,6.33-14.1,14.1V177.5c0.01,7.76,6.33,14.09,14.1,14.1h84.56
		c7.76-0.01,14.09-6.33,14.1-14.1V23.49C154.78,15.73,148.46,9.4,140.69,9.39z M117.41,13.19l-4.16,5.01
		c-0.51,0.63-1.31,0.97-2.12,0.93l-25.49,0c-0.04,0-0.08,0-0.12,0c-0.72,0-1.46-0.35-1.95-0.94l-4.14-5.01H117.41z M150.99,177.51
		c-0.01,5.67-4.63,10.29-10.3,10.3H56.13c-5.67-0.01-10.29-4.63-10.3-10.3V23.49c0.01-5.67,4.63-10.29,10.3-10.3h18.64l0.26,0.56
		c0.07,0.15,0.16,0.29,0.26,0.41l5.36,6.46c1.23,1.49,3.02,2.32,4.98,2.31h25.56c1.96,0.06,3.76-0.82,4.99-2.31l5.15-6.21
		c0.14-0.17,0.25-0.36,0.32-0.57l0.23-0.65h18.81c5.67,0.01,10.29,4.63,10.3,10.3L150.99,177.51z"/>
	<path class="st0" d="M126.17,112.23c1.05,0,1.9-0.85,1.9-1.9v0c0-1.05-0.85-1.9-1.9-1.9H93.33c-1.04,0-1.89,0.85-1.9,1.9
		c0,0.51,0.2,0.98,0.55,1.34c0.36,0.36,0.83,0.56,1.34,0.56H126.17z"/>
	<path class="st0" d="M82.54,78.78h8.07v8.08c0,2.12,1.73,3.85,3.85,3.85h7.89c2.12,0,3.85-1.73,3.85-3.85v-8.08h8.08
		c2.12,0,3.85-1.73,3.85-3.85v-7.89c0-2.12-1.73-3.85-3.85-3.85h-8.07V55.1c0-2.12-1.73-3.85-3.85-3.85h-7.89
		c-2.12,0-3.85,1.73-3.85,3.85v8.07h-8.08c-2.12,0-3.85,1.73-3.85,3.85v7.89C78.69,77.05,80.41,78.77,82.54,78.78z M82.48,66.98
		h10.03c1.05,0,1.9-0.85,1.9-1.9V55.05h8.01v10.03c0,1.05,0.85,1.9,1.9,1.9h10.03v8.01h-10.03c-1.05,0-1.9,0.85-1.9,1.9v10.03h-8.01
		V76.88c0-1.05-0.85-1.9-1.9-1.9H82.48V66.98z"/>
</g>
</svg>
