<?xml version="1.0" encoding="utf-8"?>
<!-- Generator: Adobe Illustrator 27.8.0, SVG Export Plug-In . SVG Version: 6.00 Build 0)  -->
<svg version="1.1" id="Layer_1" xmlns="http://www.w3.org/2000/svg" xmlns:xlink="http://www.w3.org/1999/xlink" x="0px" y="0px"
	 viewBox="0 0 200 200" style="enable-background:new 0 0 200 200;" xml:space="preserve">
<style type="text/css">
	.st0{fill:#FFBE0E;}
</style>
<g>
	<path class="st0" d="M176.11,78.53c0-35.23-31.78-64.38-67.01-64.38c-35.23,0-60.77,29.15-60.77,64.38
		c0,16.11,6.9,40.96,23.68,67.3c16.56,26,31.48,40.03,37.09,40.03s20.53-14.03,37.09-40.03C162.97,119.48,176.11,94.63,176.11,78.53
		z M109.73,181.59l-0.43,0.1l-0.43-0.09c-5.9-1.27-21.93-21.14-33.4-38.83c-9.72-15-22.92-42.87-22.92-64.23
		c0-32.89,23.64-60.15,56.54-60.15c32.89,0,62.77,27.25,62.77,60.15c0,21.3-19.4,49.2-29.1,64.23
		C131.36,160.42,115.48,180.29,109.73,181.59z"/>
	<path class="st0" d="M105.98,56.53v16.85h6.24V56.53c0-1.72-1.4-3.12-3.12-3.12S105.98,54.81,105.98,56.53z"/>
	<path class="st0" d="M112.21,83.61h-6.24v16.85c0,1.72,1.4,3.12,3.12,3.12s3.12-1.4,3.12-3.12V83.61z"/>
	<path class="st0" d="M131.06,81.61c1.72,0,3.12-1.4,3.12-3.12s-1.4-3.12-3.12-3.12H87.13c-1.72,0-3.12,1.4-3.12,3.12
		s1.4,3.12,3.12,3.12H131.06z"/>
</g>
</svg>
