<?xml version="1.0" encoding="utf-8"?>
<!-- Generator: Adobe Illustrator 27.8.0, SVG Export Plug-In . SVG Version: 6.00 Build 0)  -->
<svg version="1.1" id="Layer_1" xmlns="http://www.w3.org/2000/svg" xmlns:xlink="http://www.w3.org/1999/xlink" x="0px" y="0px"
	 viewBox="0 0 200 200" style="enable-background:new 0 0 200 200;" xml:space="preserve">
<style type="text/css">
	.st0{fill:#FFBE0E;}
</style>
<g>
	<path class="st0" d="M51.68,96.38c0.96,0.58,2.11,0.38,2.69-0.58l4.99-7.1l20.74,9.99c0.19,0.19,0.58,0.19,0.77,0.19
		c0.77,0,1.34-0.38,1.73-1.15c0.38-0.96,0-2.11-0.96-2.5L59.36,84.67c-0.77-0.38-1.92-0.19-2.3,0.58l-5.95,8.45
		C50.52,94.65,50.72,95.8,51.68,96.38z"/>
	<path class="st0" d="M185.52,113.28c-0.19-0.58-0.77-0.96-1.34-1.15l-17.28-4.99c-0.96-0.38-2.11,0.38-2.3,1.34
		c-0.38,0.96,0.38,2.11,1.34,2.3l14.79,4.22l-41.86,72.2l-41.28-16.32l44.93-68.17c0.38-0.58,0.38-1.34,0-1.92s-0.96-0.96-1.73-0.96
		l-32.64,0.58c-1.15,0-1.92,0.96-1.92,1.92c0,1.15,0.96,1.92,1.92,1.92l29-0.58l-43.59,66.25l-41.48,0.38l22.27-34.95
		c0.58-0.96,0.38-2.11-0.58-2.69c-0.96-0.58-2.11-0.38-2.69,0.58l-23.23,36.68l-33.99-15.75l16.51-23.81
		c0.58-0.96,0.38-2.11-0.58-2.69s-2.11-0.38-2.69,0.58L9.43,153.79c-0.38,0.58-0.38,1.15-0.38,1.73c0.19,0.58,0.58,0.96,0.96,1.15
		l37.64,17.28l0,0c0.19,0,0.38,0.19,0.77,0.19l0,0l0,0l0,0l45.7-0.58l44.55,17.67c0.19,0,0.38,0.19,0.77,0.19
		c0.58,0,1.34-0.38,1.73-0.96L185.32,115C185.71,114.43,185.71,113.85,185.52,113.28z"/>
	<path class="st0" d="M152.1,67C152.1,67,152.3,67,152.1,67c0.19,0.19,0.38,0.19,0.38,0.38l0.19,0.19l0,0
		c0.19,0.19,0.38,0.19,0.77,0.19l0,0l0,0c0.19,0,0.58,0,0.77-0.19l0,0c0.19,0,0.19-0.19,0.19-0.19c0.19,0,0.19-0.19,0.38-0.19
		c0,0,0,0,0-0.19l0,0c1.34-1.73,8.26-11.14,8.26-15.94c0-5.38-4.42-9.79-9.79-9.79s-9.79,4.42-9.79,9.79
		C143.85,55.67,150.76,65.08,152.1,67C152.1,66.81,152.1,66.81,152.1,67z M153.64,45.11c3.26,0,5.95,2.69,5.95,5.95
		c0,2.11-3.07,7.3-5.95,11.52c-2.88-4.03-5.95-9.22-5.95-11.52C147.69,47.8,150.38,45.11,153.64,45.11z"/>
	<path class="st0" d="M93.15,62.97C93.35,63.16,93.35,63.16,93.15,62.97c0.19,0.19,0.19,0.19,0.38,0.38l0.19,0.19
		c0.19,0.19,0.58,0.19,0.77,0.19c0.19,0,0.58,0,0.77-0.19l0.19-0.19c0.19,0,0.19-0.19,0.38-0.19c0,0,0,0,0-0.19c0,0,0,0,0.19,0
		c1.73-2.11,16.13-21.51,16.13-30.53c0-9.79-7.87-17.67-17.67-17.67s-17.67,7.87-17.67,17.67C77.02,41.46,91.42,60.85,93.15,62.97
		L93.15,62.97z M94.69,18.61c7.68,0,13.83,6.14,13.83,13.83c0,5.95-8.83,19.39-13.83,26.12C89.7,51.83,80.86,38.2,80.86,32.43
		C80.86,24.75,87.01,18.61,94.69,18.61z"/>
	<path class="st0" d="M40.73,85.82C40.92,85.82,40.92,85.82,40.73,85.82c0.19,0.19,0.38,0.38,0.38,0.38l0.19,0.19l0,0
		c0.19,0,0.38,0.19,0.77,0.19c0.19,0,0.58,0,0.77-0.19c0,0,0.19,0,0.19-0.19c0.19,0,0.19-0.19,0.38-0.19c0,0,0,0,0-0.19l0,0
		c1.15-1.54,10.95-14.59,10.95-20.74c0-6.91-5.57-12.48-12.48-12.48S29.4,58.17,29.4,65.08C29.79,71.22,39.58,84.09,40.73,85.82
		C40.73,85.63,40.73,85.63,40.73,85.82z M42.27,56.25c4.8,0,8.64,3.84,8.64,8.64c0,3.26-4.8,10.95-8.64,16.32
		c-3.84-5.38-8.64-13.06-8.64-16.32C33.63,60.09,37.47,56.25,42.27,56.25z"/>
	<path class="st0" d="M93.92,118.27c-0.19,0-0.38,0.19-0.58,0.38c-0.38,0.38-0.58,0.77-0.58,1.34s0.19,0.96,0.58,1.34
		c0.19,0.19,0.38,0.38,0.58,0.38c0.19,0.19,0.38,0.19,0.77,0.19c0.58,0,0.96-0.19,1.34-0.58c0.38-0.38,0.58-0.96,0.58-1.34
		c0-0.58-0.19-0.96-0.58-1.34C95.46,118.08,94.69,118.08,93.92,118.27z"/>
	<path class="st0" d="M94.69,98.68c-0.96,0-1.92,0.96-1.92,1.92c0,1.15,0.96,1.92,1.92,1.92c1.15,0,1.92-0.77,1.92-1.92
		C96.61,99.64,95.65,98.68,94.69,98.68z"/>
	<path class="st0" d="M94.69,89.08c-0.96,0-1.92,0.96-1.92,1.92c0,1.15,0.96,1.92,1.92,1.92c1.15,0,1.92-0.77,1.92-1.92
		C96.61,89.85,95.65,89.08,94.69,89.08z"/>
	<path class="st0" d="M94.69,108.48c-0.96,0-1.92,0.96-1.92,1.92s0.96,1.92,1.92,1.92c1.15,0,1.92-0.96,1.92-1.92
		S95.65,108.48,94.69,108.48z"/>
	<path class="st0" d="M94.69,69.5c-0.96,0-1.92,0.77-1.92,1.92c0,0.96,0.96,1.92,1.92,1.92c1.15,0,1.92-0.96,1.92-1.92
		S95.65,69.5,94.69,69.5z"/>
	<path class="st0" d="M94.69,79.29c-0.96,0-1.92,0.96-1.92,1.92c0,1.15,0.96,1.92,1.92,1.92c1.15,0,1.92-0.77,1.92-1.92
		S95.65,79.29,94.69,79.29z"/>
	<circle class="st0" cx="153.64" cy="120.19" r="1.92"/>
	<circle class="st0" cx="153.64" cy="74.87" r="1.92"/>
	<path class="st0" d="M153.64,81.98c-0.96,0-1.92,0.96-1.92,1.92s0.96,1.92,1.92,1.92c0.96,0,1.92-0.77,1.92-1.92
		S154.6,81.98,153.64,81.98z"/>
	<circle class="st0" cx="153.64" cy="102.14" r="1.92"/>
	<path class="st0" d="M153.64,109.24c-0.96,0-1.92,0.96-1.92,1.92c0,1.15,0.96,1.92,1.92,1.92c0.96,0,1.92-0.77,1.92-1.92
		S154.6,109.24,153.64,109.24z"/>
	<circle class="st0" cx="153.64" cy="92.92" r="1.92"/>
	<path class="st0" d="M152.87,127.68c-0.19,0-0.38,0.19-0.58,0.38c-0.38,0.38-0.58,0.77-0.58,1.34s0.19,0.96,0.58,1.34
		c0.19,0.19,0.38,0.38,0.58,0.38c0.19,0.19,0.38,0.19,0.77,0.19c0.58,0,0.96-0.19,1.34-0.58c0.38-0.38,0.58-0.77,0.58-1.34
		s-0.19-0.96-0.58-1.34C154.41,127.49,153.64,127.29,152.87,127.68z"/>
	<path class="st0" d="M42.27,113.08c-1.15,0-1.92,0.77-1.92,1.92s0.77,1.92,1.92,1.92c1.15,0,1.92-0.77,1.92-1.92
		C44.19,114.04,43.23,113.08,42.27,113.08z"/>
	<path class="st0" d="M42.27,133.44c-1.15,0-1.92,0.96-1.92,1.92s0.77,1.92,1.92,1.92c1.15,0,1.92-0.96,1.92-1.92
		S43.23,133.44,42.27,133.44z"/>
	<path class="st0" d="M42.27,92.73c-1.15,0-1.92,0.96-1.92,1.92s0.77,1.92,1.92,1.92c1.15,0,1.92-0.96,1.92-1.92
		S43.23,92.73,42.27,92.73z"/>
	<path class="st0" d="M42.27,102.91c-1.15,0-1.92,0.96-1.92,1.92c0,1.15,0.77,1.92,1.92,1.92c1.15,0,1.92-0.77,1.92-1.92
		C44.19,103.87,43.23,102.91,42.27,102.91z"/>
	<path class="st0" d="M42.27,123.26c-1.15,0-1.92,0.77-1.92,1.92c0,0.96,0.77,1.92,1.92,1.92c1.15,0,1.92-0.96,1.92-1.92
		S43.23,123.26,42.27,123.26z"/>
	<path class="st0" d="M40.92,144.19c-0.19,0.19-0.38,0.38-0.38,0.58c0,0.19-0.19,0.38-0.19,0.77c0,0.58,0.19,0.96,0.58,1.34
		s0.77,0.58,1.34,0.58c0.19,0,0.19,0,0.38,0s0.19,0,0.38,0c0.19,0,0.19-0.19,0.38-0.19s0.19-0.19,0.38-0.19l0.19-0.19
		c0,0,0.19-0.19,0.19-0.38c0-0.19,0-0.19,0.19-0.38c0-0.19,0-0.19,0-0.38s0-0.58-0.19-0.77c0-0.19-0.19-0.38-0.38-0.58
		C42.84,143.42,41.69,143.42,40.92,144.19z"/>
</g>
</svg>
