<?xml version="1.0" encoding="utf-8"?>
<!-- Generator: Adobe Illustrator 27.8.0, SVG Export Plug-In . SVG Version: 6.00 Build 0)  -->
<svg version="1.1" id="Layer_1" xmlns="http://www.w3.org/2000/svg" xmlns:xlink="http://www.w3.org/1999/xlink" x="0px" y="0px"
	 viewBox="0 0 200 200" style="enable-background:new 0 0 200 200;" xml:space="preserve">
<style type="text/css">
	.st0{fill:#FFBE0E;}
</style>
<path class="st0" d="M162.94,26.34c-0.86-6.35-6.28-11.09-12.69-11.09H62.17c-0.45,0-0.89,0.18-1.21,0.5L34.41,42.36
	c-0.32,0.32-0.5,0.75-0.5,1.21v121.99c0.01,5.82,3.94,10.91,9.57,12.39c0.86,6.35,6.28,11.08,12.69,11.09h103.53
	c7.06-0.01,12.79-5.74,12.8-12.8V38.73C172.5,32.91,168.57,27.82,162.94,26.34z M60.46,21.1v16.14c0,2.51-2.04,4.55-4.56,4.55H39.82
	L60.46,21.1z M37.34,165.55V45.21H55.9c4.4,0,7.97-3.57,7.98-7.98V18.67h86.37c5.18,0.01,9.37,4.2,9.38,9.38v137.5
	c-0.01,5.18-4.2,9.37-9.38,9.38H46.72C41.54,174.93,37.34,170.73,37.34,165.55z M169.09,176.23c-0.01,5.18-4.2,9.37-9.38,9.38H56.17
	c-4.36-0.01-8.14-3.01-9.13-7.26h103.21c7.07,0,12.8-5.73,12.81-12.8V29.96c3.63,1.39,6.02,4.88,6.03,8.76L169.09,176.23z
	 M85.14,76.82h6.18v6.98c0,2.58,2.09,4.66,4.67,4.67h5.93c2.58,0,4.67-2.09,4.67-4.67v-6.98h5.26c2.58,0,4.67-2.09,4.67-4.67v-5.93
	c0-2.58-2.09-4.67-4.67-4.67h-5.27v-6.31c0-2.58-2.09-4.67-4.67-4.67h-5.93c-2.58,0-4.67,2.09-4.67,4.67v6.31h-6.18
	c-2.58,0-4.67,2.09-4.67,4.67v5.93C80.47,74.73,82.56,76.81,85.14,76.82z M83.89,66.22c0-0.69,0.56-1.25,1.25-1.25h7.89
	c0.95,0,1.71-0.77,1.71-1.71l0,0v-8.02c0-0.69,0.56-1.25,1.25-1.25h5.93c0.69,0,1.25,0.56,1.25,1.25v8.02
	c0,0.95,0.77,1.71,1.71,1.71l0,0h6.97c0.69,0,1.25,0.56,1.25,1.25v5.93c0,0.69-0.56,1.25-1.25,1.25h-6.98
	c-0.95,0-1.71,0.77-1.71,1.71v0v8.69c0,0.69-0.56,1.25-1.25,1.25h-5.93c-0.69,0-1.25-0.56-1.25-1.25v-8.69
	c0-0.95-0.77-1.71-1.71-1.71c0,0,0,0,0,0h-7.89c-0.69,0-1.25-0.56-1.25-1.25V66.22z M98.49,97.24c15.31,0,27.73-12.42,27.72-27.74
	s-12.42-27.73-27.74-27.72c-15.31,0-27.72,12.42-27.72,27.73C70.77,84.82,83.18,97.23,98.49,97.24L98.49,97.24z M98.49,45.21
	c13.42,0,24.3,10.88,24.3,24.3s-10.88,24.3-24.3,24.3s-24.3-10.88-24.3-24.3l0,0C74.21,56.1,85.07,45.23,98.49,45.21L98.49,45.21z
	 M60.13,114.92c0-0.94,0.76-1.71,1.71-1.71c0,0,0,0,0,0h73.29c0.94-0.06,1.76,0.65,1.82,1.59c0.06,0.94-0.65,1.76-1.59,1.82
	c-0.08,0.01-0.16,0.01-0.23,0H61.84C60.9,116.63,60.13,115.87,60.13,114.92L60.13,114.92z M60.13,127.87c0-0.94,0.76-1.71,1.71-1.71
	c0,0,0,0,0,0h73.29c0.94,0.06,1.65,0.88,1.59,1.82c-0.06,0.85-0.74,1.53-1.59,1.59H61.84C60.9,129.57,60.13,128.81,60.13,127.87
	L60.13,127.87z M60.13,140.81c0-0.95,0.76-1.71,1.7-1.72c0,0,0,0,0,0h73.29c0.94,0.08,1.64,0.91,1.56,1.85
	c-0.07,0.83-0.73,1.49-1.56,1.56H61.84C60.9,142.51,60.14,141.75,60.13,140.81L60.13,140.81z M60.13,153.76
	c0-0.95,0.77-1.71,1.71-1.71h73.29c0.94,0.08,1.64,0.91,1.56,1.85c-0.07,0.83-0.73,1.49-1.56,1.56H61.84
	C60.9,155.46,60.13,154.7,60.13,153.76L60.13,153.76z"/>
</svg>
