<svg width="583" height="90" viewBox="0 0 583 90" fill="none" xmlns="http://www.w3.org/2000/svg">
<g clip-path="url(#clip0_106_2)">
<path d="M41.6398 -0.410156L83.2398 89.5199H71.9198L41.6498 23.8798L11.4998 89.5199H0.299805L41.6398 -0.410156Z" fill="#00a4ff"/>
<path d="M205.99 89.5294H191.87L152.05 47.1694H171.13C181.31 47.1694 189.57 38.8994 189.57 28.7294C189.57 18.2994 181.3 10.0294 171.13 10.0294H143.02V89.4094H132.84V-0.140625H171.13C187.03 -0.140625 199.75 12.8394 199.75 28.7394C199.75 43.1094 189.19 55.0694 175.33 57.1094L205.99 89.5294Z" fill="#00a4ff"/>
<path d="M253.06 10.5296V0.349609H328.24V10.5296H253.06ZM295.67 89.5296H285.49V47.7996H295.67V89.5296Z" fill="#00a4ff"/>
<path d="M388.02 10.3997V39.7797H443.1V50.0797H388.02V79.3397H443.1V89.5197H377.84V0.219727H443.1V10.3997H388.02Z" fill="#00a4ff"/>
<path d="M572.59 25.7996L538.75 61.6696L505.42 25.7996V89.5296H495.24V0.0996094L538.87 46.6596L582.76 0.0996094V89.5196H572.58V25.7996H572.59Z" fill="#00a4ff"/>
</g>
<defs>
<clipPath id="clip0_106_2">
<rect width="583" height="90" fill="white"/>
</clipPath>
</defs>
</svg>
