<svg width="100" height="100" viewBox="0 0 100 100" fill="none" xmlns="http://www.w3.org/2000/svg">
<g clip-path="url(#clip0_99_2)">
<path d="M63.4952 0.00390625H35.3574V8.62581H63.4952V0.00390625Z" fill="#0052A5"/>
<path d="M54.8701 0.00476646V28.1426H63.492V0.00476646H54.8701Z" fill="#00A4FF"/>
<path d="M63.4952 36.0068H35.3574V44.6287H63.4952V36.0068Z" fill="#0052A5"/>
<path d="M54.8711 36.0077V64.1455H63.493V36.0077H54.8711Z" fill="#00A4FF"/>
<path d="M99.1945 36.0068H71.0566V44.6287H99.1945V36.0068Z" fill="#0052A5"/>
<path d="M90.5713 36.0048V64.1426H99.1932V36.0048H90.5713Z" fill="#00A4FF"/>
<path d="M29.004 36.0068H0.866211V44.6287H29.004V36.0068Z" fill="#F9A73E"/>
<path d="M20.3809 36.0048V64.1426H29.0028V36.0048H20.3809Z" fill="#F9A73E"/>
<path d="M63.4952 72.0107H35.3574V80.6327H63.4952V72.0107Z" fill="#0052A5"/>
<path d="M54.8721 72.0106V100.148H63.494V72.0106H54.8721Z" fill="#00A4FF"/>
</g>
<defs>
<clipPath id="clip0_99_2">
<rect width="98.2332" height="100" fill="white" transform="translate(1)"/>
</clipPath>
</defs>
</svg>
