<?xml version="1.0" encoding="UTF-8"?>
<svg xmlns="http://www.w3.org/2000/svg" width="242.8" height="79.27" viewBox="0 0 242.8 79.27">
  <title>logo</title>
  <path d="M25.25,52.45H5.34A5.35,5.35,0,0,1,0,47.11V32.17a5.35,5.35,0,0,1,5.34-5.34H26.81V5.34A5.36,5.36,0,0,1,32.15,0h15A5.36,5.36,0,0,1,52.5,5.34V25.22h-14c-9.25,0-13.25,6-13.25,14.7Z" fill="#2490eb" fill-rule="evenodd"></path>
  <path d="M52.46,52.45V73.92a5.37,5.37,0,0,1-5.35,5.35h-15a5.37,5.37,0,0,1-5.34-5.35v-34c0-8,3.47-13.11,11.66-13.11H74.25C62.25,29.27,52.46,35.33,52.46,52.45Z" fill="#2490eb" fill-rule="evenodd"></path>
  <path d="M78.08,32.17V47.09a5.35,5.35,0,0,1-5.33,5.33H51.33c0-17.08,9.74-23.13,21.74-25.57a5.33,5.33,0,0,1,5,5.09A1.77,1.77,0,0,1,78.08,32.17Z" fill="#2490eb" fill-rule="evenodd"></path>
  <path d="M90.64,24.85l.91,0,.73,0h.61c.26,0,.71,0,1.33,0l2.13-.08,2.49-.09c.86,0,1.67,0,2.43,0a21.47,21.47,0,0,1,5.79.76,12.73,12.73,0,0,1,4.83,2.47,11.92,11.92,0,0,1,3.3,4.52,17.19,17.19,0,0,1,1.21,6.86,19.66,19.66,0,0,1-.64,5.25A14.43,14.43,0,0,1,114,48.66a12.42,12.42,0,0,1-2.76,3.05,15.35,15.35,0,0,1-3.55,2.09,18.45,18.45,0,0,1-4.15,1.2,27.12,27.12,0,0,1-4.55.38c-.56,0-1.24,0-2-.06l-2.38-.11-2.26-.12c-.71,0-1.26-.05-1.65-.05V55a8.5,8.5,0,0,0,.24-1.1,15.63,15.63,0,0,0,.2-1.61c.06-.65.1-1.41.13-2.3s0-1.93,0-3.12V33.16c0-1.19,0-2.23,0-3.14s-.07-1.68-.13-2.33-.12-1.2-.2-1.65a8.69,8.69,0,0,0-.24-1.11Zm4.6,1.89c0,1.56-.06,3.08-.08,4.55,0,.63,0,1.28,0,1.94l0,1.94c0,.63,0,1.24,0,1.82s0,1.1,0,1.55c0,.93,0,2.07,0,3.4s0,2.69.06,4.09,0,2.75.09,4,.09,2.36.15,3.22l.79.09c.32,0,.67.06,1,.09l1.08,0,.88,0a24,24,0,0,0,3-.2,12.65,12.65,0,0,0,3-.75,10.78,10.78,0,0,0,2.71-1.5,9.16,9.16,0,0,0,2.23-2.46A13.13,13.13,0,0,0,111.6,45a20.61,20.61,0,0,0,.54-5,19.65,19.65,0,0,0-.77-5.72A11.61,11.61,0,0,0,109.09,30a9.51,9.51,0,0,0-3.72-2.61,13.44,13.44,0,0,0-5.09-.89l-1.28,0-1.42.06-1.32.08Z" fill="#042242"></path>
  <path d="M119.81,44.25a10.89,10.89,0,0,1,3.3-7.92A11.23,11.23,0,0,1,126.76,34a12,12,0,0,1,4.51-.84,12.42,12.42,0,0,1,4.46.79,10.75,10.75,0,0,1,3.64,2.24,10.31,10.31,0,0,1,2.45,3.52,12.29,12.29,0,0,1,.14,8.82,10.43,10.43,0,0,1-2.23,3.53,10.71,10.71,0,0,1-3.6,2.44,12.31,12.31,0,0,1-4.9.92,12.47,12.47,0,0,1-4.43-.78,10.82,10.82,0,0,1-3.63-2.22,10.43,10.43,0,0,1-2.46-3.52A11.55,11.55,0,0,1,119.81,44.25Zm11.9,9.64a6.39,6.39,0,0,0,2.74-.59,6.08,6.08,0,0,0,2.15-1.7A8.38,8.38,0,0,0,138,48.89a11.89,11.89,0,0,0,.5-3.61,17.44,17.44,0,0,0-.48-4.21,10.28,10.28,0,0,0-1.44-3.36,6.79,6.79,0,0,0-2.4-2.22,6.92,6.92,0,0,0-3.38-.8,6.42,6.42,0,0,0-2.73.58,6.2,6.2,0,0,0-2.15,1.67,7.69,7.69,0,0,0-1.42,2.68,11.77,11.77,0,0,0-.51,3.6,17.13,17.13,0,0,0,.5,4.22A10.67,10.67,0,0,0,126,50.83a7,7,0,0,0,2.4,2.25A6.73,6.73,0,0,0,131.71,53.89Z" fill="#042242"></path>
  <path d="M164.86,50.57l-1.55,3.74a11.39,11.39,0,0,1-1.3.46,14.63,14.63,0,0,1-1.52.35c-.53.1-1.06.17-1.59.22s-1,.08-1.51.08a14.15,14.15,0,0,1-4.69-.75A10.43,10.43,0,0,1,149,52.5,10,10,0,0,1,146.53,49a12.14,12.14,0,0,1-.88-4.74,10.62,10.62,0,0,1,3.46-7.92A11.85,11.85,0,0,1,152.94,34a13.32,13.32,0,0,1,4.79-.84,17.73,17.73,0,0,1,2.52.2,18.3,18.3,0,0,1,2.39.52l1.49,3.57-.25.14a6.71,6.71,0,0,0-1.25-1.18,8.65,8.65,0,0,0-1.6-.92,9.18,9.18,0,0,0-1.84-.58,8.62,8.62,0,0,0-2-.22,7.58,7.58,0,0,0-3,.58,6.41,6.41,0,0,0-2.31,1.67,7.82,7.82,0,0,0-1.5,2.68,11.16,11.16,0,0,0-.54,3.6,16.21,16.21,0,0,0,.52,4.22,10.32,10.32,0,0,0,1.53,3.39,7.19,7.19,0,0,0,2.56,2.25,7.7,7.7,0,0,0,3.62.81,7.78,7.78,0,0,0,1.92-.25,8.08,8.08,0,0,0,3.38-1.77,6.25,6.25,0,0,0,1.19-1.43Z" fill="#042242"></path>
  <path d="M183.13,40.89a8.81,8.81,0,0,0-.28-2.39,4.66,4.66,0,0,0-.82-1.67,3.34,3.34,0,0,0-1.29-1,4.2,4.2,0,0,0-1.68-.33,4.6,4.6,0,0,0-1.41.26,9.78,9.78,0,0,0-1.61.68,16.13,16.13,0,0,0-1.65,1,14.53,14.53,0,0,0-1.57,1.21c0,.45,0,.93,0,1.44v6.73c0,1.19,0,2.23,0,3.12s.07,1.65.13,2.3.12,1.18.19,1.61a8.67,8.67,0,0,0,.23,1.1V55h-4.85V55c.08-.3.16-.66.24-1.1s.14-1,.19-1.61.09-1.41.12-2.3.06-1.93.06-3.12V41.75q0-1.78-.06-3.12c0-.89-.07-1.65-.12-2.3s-.12-1.18-.19-1.61-.16-.8-.24-1.1v-.08h4.85v.08a6.33,6.33,0,0,0-.27,1.23c-.06.5-.12,1.13-.19,1.88.55-.45,1.16-.89,1.8-1.32a16.62,16.62,0,0,1,2-1.16,15.25,15.25,0,0,1,2-.82,7.32,7.32,0,0,1,2-.31,6.86,6.86,0,0,1,2.12.31,5.58,5.58,0,0,1,1.62.87,5,5,0,0,1,1.16,1.28,6.07,6.07,0,0,1,.73,1.57c.57-.49,1.2-1,1.88-1.46a18.08,18.08,0,0,1,2.09-1.29,13.09,13.09,0,0,1,2.21-.92,7.17,7.17,0,0,1,2.19-.36,6.22,6.22,0,0,1,2.79.57,5.29,5.29,0,0,1,1.86,1.49,5.66,5.66,0,0,1,1,2.11,8.91,8.91,0,0,1,.33,2.4v7.14c0,1.19,0,2.23,0,3.12s.07,1.65.13,2.3a15.63,15.63,0,0,0,.2,1.61,8.5,8.5,0,0,0,.24,1.1V55h-4.87V55c.08-.3.16-.66.24-1.1s.14-1,.2-1.61.1-1.41.12-2.3,0-1.93,0-3.12V40.89A6.11,6.11,0,0,0,196,36.82a3.71,3.71,0,0,0-3-1.31,4.78,4.78,0,0,0-1.44.26,10,10,0,0,0-1.62.69,15.07,15.07,0,0,0-1.68,1,14.81,14.81,0,0,0-1.58,1.23,2.74,2.74,0,0,1,0,.5v7.62q0,1.79.06,3.12c0,.89.07,1.65.12,2.3a16,16,0,0,0,.19,1.61c.08.44.16.8.24,1.1V55h-4.85V55a8.67,8.67,0,0,0,.23-1.1c.07-.43.14-1,.19-1.61s.1-1.41.13-2.3,0-1.93,0-3.12Z" fill="#042242"></path>
  <path d="M216.54,55.42a12.77,12.77,0,0,1-4.37-.74,10.1,10.1,0,0,1-3.55-2.15A9.87,9.87,0,0,1,206.24,49a12.3,12.3,0,0,1-.87-4.77,12,12,0,0,1,.79-4.4,11.07,11.07,0,0,1,2.21-3.52A10.28,10.28,0,0,1,211.65,34a9.88,9.88,0,0,1,4.07-.84,10.56,10.56,0,0,1,4,.75,9,9,0,0,1,3.2,2.16,10.23,10.23,0,0,1,2.14,3.51,14.41,14.41,0,0,1,.85,4.75c-1.58,0-3.16,0-4.75-.06s-3.22,0-4.93,0c-1.22,0-2.4,0-3.56,0s-2.19,0-3.12.06a16.57,16.57,0,0,0,.69,4,9.37,9.37,0,0,0,1.53,3,6.46,6.46,0,0,0,2.37,1.92,7.19,7.19,0,0,0,3.16.68,9,9,0,0,0,2.3-.29,7.81,7.81,0,0,0,2-.79,7.48,7.48,0,0,0,1.58-1.18,8.25,8.25,0,0,0,1.18-1.48l.25.12L223,54a12.84,12.84,0,0,1-2.71,1A15.3,15.3,0,0,1,216.54,55.42Zm-2.8-12.81H218c1.41,0,2.69,0,3.83-.07a13.55,13.55,0,0,0-.71-3.28,8.74,8.74,0,0,0-1.34-2.46,5.67,5.67,0,0,0-1.94-1.55,5.54,5.54,0,0,0-2.45-.55,4.72,4.72,0,0,0-2.24.54,5.28,5.28,0,0,0-1.77,1.54,8.26,8.26,0,0,0-1.22,2.47,13,13,0,0,0-.55,3.33c.63,0,1.3,0,2,0Z" fill="#042242"></path>
  <path d="M238,53.8a3.58,3.58,0,0,0,1.24-.23,4.93,4.93,0,0,0,1.2-.63,8.65,8.65,0,0,0,1.11-.91,14.37,14.37,0,0,0,1-1.08l.21.1-1.36,3.38-.62.31a7.17,7.17,0,0,1-.88.33,8.12,8.12,0,0,1-1.21.27,9.74,9.74,0,0,1-1.64.12,6,6,0,0,1-4.38-1.52,6.4,6.4,0,0,1-1.56-4.76v-14l-3.53.12V33.46l1.55.06,2,0c0-1,0-1.87-.07-2.63s-.08-1.43-.13-2-.11-1.05-.18-1.44-.14-.72-.21-1V26.4h4.85v.09a8.5,8.5,0,0,0-.23,1c-.07.39-.13.87-.18,1.43s-.09,1.22-.12,2-.06,1.65-.08,2.66l2.59,0q1.28,0,2.31-.09l1.77-.1c.48,0,.8-.07.95-.1L242,35.35l-2.24-.07q-1,0-2.31-.06l-2.69,0V49.62a6.77,6.77,0,0,0,.28,2.11,3.36,3.36,0,0,0,.74,1.27,2.27,2.27,0,0,0,1,.63A3.94,3.94,0,0,0,238,53.8Z" fill="#042242"></path>
</svg>
