<?xml version="1.0" encoding="UTF-8"?>
<svg xmlns="http://www.w3.org/2000/svg" width="78.08" height="79.27" viewBox="0 0 78.08 79.27">
  <title>medico-logo-icon</title>
  <path d="M25.25,52.45H5.34A5.35,5.35,0,0,1,0,47.11V32.17a5.35,5.35,0,0,1,5.34-5.34H26.81V5.34A5.36,5.36,0,0,1,32.15,0h15A5.36,5.36,0,0,1,52.5,5.34V25.22h-14c-9.25,0-13.25,6-13.25,14.7Z" fill="#fff" fill-rule="evenodd"></path>
  <path d="M52.46,52.45V73.92a5.37,5.37,0,0,1-5.35,5.35h-15a5.37,5.37,0,0,1-5.34-5.35v-34c0-8,3.47-13.11,11.66-13.11H74.25C62.25,29.27,52.46,35.33,52.46,52.45Z" fill="#fff" fill-rule="evenodd"></path>
  <path d="M78.08,32.17V47.09a5.35,5.35,0,0,1-5.33,5.33H51.33c0-17.08,9.74-23.13,21.74-25.57a5.33,5.33,0,0,1,5,5.09A1.77,1.77,0,0,1,78.08,32.17Z" fill="#fff" fill-rule="evenodd"></path>
</svg>
