<?xml version="1.0" encoding="utf-8"?>
<!-- Generator: Adobe Illustrator 23.0.2, SVG Export Plug-In . SVG Version: 6.00 Build 0)  -->
<svg version="1.0" id="Layer_1" xmlns="http://www.w3.org/2000/svg" xmlns:xlink="http://www.w3.org/1999/xlink" x="0px" y="0px"
	 viewBox="0 0 16 16" style="enable-background:new 0 0 16 16;" xml:space="preserve">
<style type="text/css">
	.st0{fill:#0052A5;}
	.st1{fill-rule:evenodd;clip-rule:evenodd;fill:#00A4FF;}
	.st2{fill:#00A4FF;}
	.st3{fill:#F9A73E;}
</style>
<path class="st0" d="M14.01,12.08V5.33h-1.35v-0.9h-3v0.9H8.32v6.74H7.57V3.54H2.32v8.54H1.87v1.05h12.59v-1.05H14.01z M6.52,10.95
	H3.37v-0.75h3.15V10.95z M6.52,9.16H3.37V8.41h3.15V9.16z M6.52,7.36H3.37V6.61h3.15V7.36z M6.52,5.56H3.37V4.81h3.15V5.56z
	 M12.96,10.95h-3.6v-0.75h3.6V10.95z M12.96,9.16h-3.6V8.41h3.6V9.16z M12.96,7.36h-3.6V6.61h3.6V7.36z"/>
</svg>
