<?xml version="1.0" encoding="utf-8"?>
<!-- Generator: Adobe Illustrator 23.0.2, SVG Export Plug-In . SVG Version: 6.00 Build 0)  -->
<svg version="1.0" id="Layer_1" xmlns="http://www.w3.org/2000/svg" xmlns:xlink="http://www.w3.org/1999/xlink" x="0px" y="0px"
	 viewBox="0 0 16 16" style="enable-background:new 0 0 16 16;" xml:space="preserve">
<style type="text/css">
	.st0{fill:#0052A5;}
	.st1{fill-rule:evenodd;clip-rule:evenodd;fill:#00A4FF;}
	.st2{fill:#00A4FF;}
	.st3{fill:#F9A73E;}
</style>
<path class="st1" d="M4.91,2.9c-0.8,0-1.44,0.65-1.44,1.44v6.74c0,1.33,1.08,2.41,2.41,2.41h4.81c0.8,0,1.44-0.65,1.44-1.44V5.79
	c0-0.53-0.43-0.96-0.96-0.96H4.91c-0.27,0-0.48-0.22-0.48-0.48c0-0.27,0.22-0.48,0.48-0.48h6.74c0.27,0,0.48-0.22,0.48-0.48
	S11.92,2.9,11.65,2.9L4.91,2.9z M8.28,7.23c0.13,0,0.24,0.11,0.24,0.24v0.96h0.96c0.13,0,0.24,0.11,0.24,0.24v0.96
	c0,0.13-0.11,0.24-0.24,0.24H8.52v0.96c0,0.13-0.11,0.24-0.24,0.24H7.32c-0.13,0-0.24-0.11-0.24-0.24V9.88H6.12
	c-0.13,0-0.24-0.11-0.24-0.24V8.67c0-0.13,0.11-0.24,0.24-0.24h0.96V7.47c0-0.13,0.11-0.24,0.24-0.24H8.28z"/>
</svg>
