<?xml version="1.0" encoding="utf-8"?>
<!-- Generator: Adobe Illustrator 27.8.0, SVG Export Plug-In . SVG Version: 6.00 Build 0)  -->
<svg version="1.1" id="Layer_1" xmlns="http://www.w3.org/2000/svg" xmlns:xlink="http://www.w3.org/1999/xlink" x="0px" y="0px"
	 viewBox="0 0 16 16" fill="#0097ff" style="enable-background:new 0 0 16 16;" xml:space="preserve">
<style type="text/css">
	.st0{fill:#0097ff;}
	.st1{fill-rule:evenodd;clip-rule:evenodd;fill:#0097ff;}
	.st2{fill:#0097ff;}
	.st3{fill:#0097ff;}
</style>
<path class="st3" d="M5.72,5.57h1.52v1.52c0,0.17,0.13,0.31,0.31,0.31h1.52c0.17,0,0.31-0.13,0.31-0.31V5.57h1.52
	c0.17,0,0.31-0.13,0.31-0.31V3.73c0-0.17-0.13-0.31-0.31-0.31h-1.5V1.9c0-0.17-0.13-0.31-0.31-0.31H7.54
	c-0.17,0-0.31,0.13-0.31,0.31v1.52H5.72c-0.17,0-0.31,0.13-0.31,0.31v1.52C5.41,5.43,5.54,5.57,5.72,5.57L5.72,5.57z"/>
<path class="st3" d="M7.18,9.33L5.31,7.18c-0.08-0.09-0.2-0.16-0.34-0.16C4.84,7.01,4.72,7.06,4.63,7.14
	C4.47,7.29,4.41,7.53,4.52,7.72l0.05,0.11c0.28,0.56,0.62,1.1,0.99,1.6l0.32,0.43C5.94,9.92,5.96,10,5.96,10.1
	c-0.01,0.08-0.05,0.16-0.12,0.21c-0.07,0.05-0.16,0.07-0.24,0.07c-0.08-0.01-0.16-0.05-0.21-0.12L5.06,9.83
	C4.65,9.29,4.3,8.72,4,8.13L3.94,8.03C3.71,7.57,3.81,7.01,4.2,6.67C4.22,6.64,4.25,6.62,4.29,6.6L3.61,4.86
	c-0.08-0.2-0.27-0.34-0.48-0.36C2.96,4.48,2.8,4.53,2.68,4.65C2.56,4.76,2.5,4.91,2.5,5.07l0.08,4.46c0.01,0.42,0.17,0.81,0.47,1.12
	l1.68,1.72h2.85L7.53,10.2C7.5,9.87,7.38,9.57,7.18,9.33L7.18,9.33z"/>
<path class="st3" d="M4.76,14.09c0,0.15,0.12,0.27,0.27,0.27H7.3c0.15,0,0.27-0.12,0.27-0.27v-1.12H4.76L4.76,14.09z"/>
<path class="st3" d="M13.94,4.65c-0.12-0.11-0.27-0.16-0.43-0.15c-0.21,0.01-0.4,0.16-0.48,0.36l-0.69,1.71
	c0.03,0.03,0.07,0.04,0.09,0.07c0.39,0.34,0.48,0.9,0.26,1.36l-0.05,0.11c-0.3,0.59-0.66,1.17-1.06,1.69l-0.32,0.43
	c-0.05,0.07-0.12,0.12-0.21,0.12c-0.08,0.01-0.17-0.01-0.24-0.07c-0.07-0.05-0.11-0.12-0.12-0.21c-0.01-0.08,0.01-0.17,0.07-0.24
	l0.32-0.43c0.38-0.51,0.71-1.05,0.99-1.6l0.05-0.11c0.09-0.2,0.05-0.43-0.11-0.58c-0.09-0.08-0.23-0.13-0.35-0.12
	c-0.13,0.01-0.26,0.07-0.34,0.16L9.44,9.33c-0.2,0.24-0.32,0.54-0.35,0.85l-0.05,2.16h2.85l1.68-1.72c0.3-0.3,0.46-0.69,0.47-1.12
	l0.08-4.46C14.11,4.91,14.04,4.76,13.94,4.65L13.94,4.65z"/>
<path class="st3" d="M9.03,14.09c0,0.15,0.12,0.27,0.27,0.27h2.27c0.15,0,0.27-0.12,0.27-0.27v-1.12H9.03L9.03,14.09z"/>
</svg>
