<?xml version="1.0" encoding="utf-8"?>
<!-- Generator: Adobe Illustrator 27.8.0, SVG Export Plug-In . SVG Version: 6.00 Build 0)  -->
<svg version="1.1" id="Layer_1" xmlns="http://www.w3.org/2000/svg" xmlns:xlink="http://www.w3.org/1999/xlink" x="0px" y="0px"
	 viewBox="0 0 16 16" style="enable-background:new 0 0 16 16;" xml:space="preserve">
<style type="text/css">
	.st0{fill:#f9a73e;}
	.st1{fill-rule:evenodd;clip-rule:evenodd;fill:#f9a73e;}
	.st2{fill:#f9a73e;}
	.st3{fill:#f9a73e;}
</style>
<path class="st2" d="M15.26,6.81l-6.95-5.3c-0.12-0.09-0.28-0.09-0.4,0l-6.95,5.3C0.84,6.89,0.8,7.04,0.84,7.17
	C0.89,7.31,1.02,7.4,1.16,7.4h1.65v6.95c0,0.09,0.03,0.17,0.1,0.23c0.06,0.06,0.15,0.1,0.23,0.1h9.93c0.09,0,0.17-0.03,0.23-0.1
	c0.06-0.06,0.1-0.15,0.1-0.23V7.4h1.65c0.14,0,0.27-0.09,0.31-0.23C15.42,7.04,15.37,6.89,15.26,6.81L15.26,6.81z M10.09,10.05H8.77
	v1.32H7.45v-1.32H6.12V8.72h1.32V7.4h1.32v1.32h1.32L10.09,10.05z"/>
</svg>
