<?xml version="1.0" encoding="utf-8"?>
<!-- Generator: Adobe Illustrator 27.8.0, SVG Export Plug-In . SVG Version: 6.00 Build 0)  -->
<svg version="1.1" id="Layer_1" xmlns="http://www.w3.org/2000/svg" xmlns:xlink="http://www.w3.org/1999/xlink" x="0px" y="0px"
	 viewBox="0 0 16 16" fill="#f9a73e" style="enable-background:new 0 0 16 16;" xml:space="preserve">
<style type="text/css">
	.st0{fill:#f9a73e;}
	.st1{fill-rule:evenodd;clip-rule:evenodd;fill:#f9a73e;}
	.st2{fill:#f9a73e;}
	.st3{fill:#f9a73e;}
</style>
<path class="st0" d="M7.73,13.82c0.04-0.01,4.86-1.64,5.93-10.71c-0.57,0.14-1.19,0.21-1.85,0.21c-1.74,0-3.24-0.54-4.08-1.37
	C6.9,2.77,5.38,3.33,3.65,3.33c-0.65,0-1.28-0.09-1.85-0.21C2.86,12.19,7.68,13.79,7.73,13.82L7.73,13.82z M3.65,4.51
	c1.55,0,3-0.38,4.08-1.05c1.08,0.67,2.53,1.05,4.08,1.05c0.14,0,0.3,0,0.44-0.01c-1.01,5.53-3.54,7.45-4.52,8.02
	c-0.98-0.57-3.51-2.49-4.52-8.01L3.65,4.51L3.65,4.51z"/>
<path class="st0" d="M7.13,9.67h1.19V7.89h1.78V6.71H8.32V4.93H7.13v1.78H5.35v1.18h1.78V9.67z"/>
</svg>
