<?xml version="1.0" encoding="utf-8"?>
<!-- Generator: Adobe Illustrator 27.8.0, SVG Export Plug-In . SVG Version: 6.00 Build 0)  -->
<svg version="1.1" id="Layer_1" xmlns="http://www.w3.org/2000/svg" xmlns:xlink="http://www.w3.org/1999/xlink" x="0px" y="0px"
	 viewBox="0 0 16 16" style="enable-background:new 0 0 16 16;" xml:space="preserve">
<style type="text/css">
	.st0{fill:#0097ff;}
	.st1{fill-rule:evenodd;clip-rule:evenodd;fill:#0097ff;}
	.st2{fill:#0097ff;}
	.st3{fill:#0097ff;}
</style>
<path class="st3" d="M2.15,7.45h11.68h0.01c0.16,0,0.29-0.13,0.29-0.29c0-0.11-0.06-0.2-0.15-0.25L8.16,2.55
	c-0.1-0.08-0.24-0.08-0.34,0L1.98,6.94c-0.1,0.07-0.14,0.2-0.1,0.32C1.92,7.37,2.02,7.45,2.15,7.45L2.15,7.45z"/>
<path class="st3" d="M2.75,8.02H5.1v4.84H2.75L2.75,8.02z"/>
<path class="st3" d="M10.88,8.02h2.34v4.84h-2.34L10.88,8.02z"/>
<path class="st3" d="M6.82,8.02h2.34v4.84H6.82V8.02z"/>
</svg>
