<svg width="180" height="45" viewBox="0 0 180 45" fill="none" xmlns="http://www.w3.org/2000/svg">
<path d="M18.436 19.878V15.784H5.372V4.882H20.92V0.741998H0.864V34H5.372V19.878H18.436ZM39.799 11.506V23.374C39.799 28.204 37.637 30.734 33.681 30.734C30.369 30.734 28.299 28.894 28.299 24.064V11.506H23.975V25.49C23.975 31.01 26.919 34.552 32.163 34.552C35.475 34.552 38.465 32.942 39.753 30.596L40.213 34H44.077V11.506H39.799ZM54.6747 34V22.086C54.6747 17.716 57.0207 14.818 61.0687 14.818C64.3807 14.818 66.4967 16.658 66.4967 21.212V34H70.8207V20.246C70.8207 14.496 68.1067 10.862 62.1727 10.862C58.9987 10.862 56.1467 12.38 54.7207 14.956L54.2607 11.506H50.3507V34H54.6747ZM85.8256 34.552C89.4136 34.552 92.4496 32.988 93.9216 29.906L94.2896 34H98.1536V0.143997H93.8756V15.14C92.3576 12.38 89.4596 10.862 86.0096 10.862C79.3396 10.862 75.3376 15.922 75.3376 22.822C75.3376 29.676 79.2936 34.552 85.8256 34.552ZM86.6996 30.642C82.2836 30.642 79.7076 27.33 79.7076 22.684C79.7076 18.084 82.2836 14.772 86.6996 14.772C91.1156 14.772 93.8296 18.084 93.8296 22.684C93.8296 27.376 91.1156 30.642 86.6996 30.642ZM114.098 34.552C119.664 34.552 123.436 31.838 124.54 27.008H120.492C119.756 29.584 117.548 30.964 114.19 30.964C109.912 30.964 107.428 28.342 107.106 23.604L124.494 23.558V21.948C124.494 15.278 120.308 10.862 113.914 10.862C107.382 10.862 102.92 15.738 102.92 22.776C102.92 29.768 107.474 34.552 114.098 34.552ZM113.914 14.496C117.732 14.496 120.17 16.98 120.17 20.706H107.198C107.75 16.75 110.142 14.496 113.914 14.496ZM145.02 34V30.366H132.784L145.02 15.048V11.506H127.494V15.14H139.638L127.494 30.504V34H145.02ZM147.736 44.074C148.886 44.35 150.082 44.534 151.508 44.534C154.958 44.534 157.212 42.924 158.73 39.06L169.356 11.506H164.894L158.224 29.63L151.692 11.506H147.138L156.2 35.196L155.418 37.358C154.36 40.21 152.704 40.532 150.634 40.532H147.736V44.074Z" fill="black"/>
<path d="M176.028 34.552C177.776 34.552 179.294 33.08 179.294 31.332C179.294 29.538 177.776 28.066 176.028 28.066C174.234 28.066 172.716 29.538 172.716 31.332C172.716 33.08 174.234 34.552 176.028 34.552Z" fill="#E3655B"/>
</svg>
