<?xml version="1.0" encoding="utf-8"?>
<!-- Generator: Adobe Illustrator 23.0.2, SVG Export Plug-In . SVG Version: 6.00 Build 0)  -->
<svg version="1.0" id="Layer_1" xmlns="http://www.w3.org/2000/svg" xmlns:xlink="http://www.w3.org/1999/xlink" x="0px" y="0px"
	 viewBox="0 0 16 16" style="enable-background:new 0 0 16 16;" xml:space="preserve">
<style type="text/css">
	.st0{clip-path:url(#SVGID_1_);}
	.st1{fill:#FFFFFF;}
	.st2{fill:url(#SVGID_2_);}
	.st3{fill:url(#SVGID_3_);}
	.st4{fill:url(#SVGID_4_);}
	.st5{fill:#00509C;}
</style>
<g>
	<defs>
		<circle id="SVGID_6_" cx="7.99" cy="7.94" r="7.9"/>
	</defs>
	<clipPath id="SVGID_1_">
		<use xlink:href="#SVGID_6_"  style="overflow:visible;"/>
	</clipPath>
	<g class="st0">
		<g>
			<rect x="-0.58" y="-0.74" class="st1" width="17.12" height="17.34"/>
			<radialGradient id="SVGID_2_" cx="7.9758" cy="7.9357" r="8.6155" gradientUnits="userSpaceOnUse">
				<stop  offset="0" style="stop-color:#FFFFFF"/>
				<stop  offset="1" style="stop-color:#EDEDED"/>
			</radialGradient>
			<rect x="-0.58" y="-0.74" class="st2" width="17.12" height="17.34"/>
			<radialGradient id="SVGID_3_" cx="8.219" cy="8.2959" r="8.7298" gradientUnits="userSpaceOnUse">
				<stop  offset="0.4184" style="stop-color:#51B800"/>
				<stop  offset="0.518" style="stop-color:#4EB200"/>
				<stop  offset="0.6479" style="stop-color:#45A200"/>
				<stop  offset="0.7944" style="stop-color:#378700"/>
				<stop  offset="0.9522" style="stop-color:#246200"/>
				<stop  offset="1" style="stop-color:#1D5500"/>
			</radialGradient>
			<rect x="-0.58" y="10.85" class="st3" width="17.12" height="5.76"/>
			<radialGradient id="SVGID_4_" cx="8.1762" cy="7.7824" r="8.7726" gradientUnits="userSpaceOnUse">
				<stop  offset="0.043" style="stop-color:#FFC800"/>
				<stop  offset="0.2123" style="stop-color:#FFC200"/>
				<stop  offset="0.4427" style="stop-color:#FFB000"/>
				<stop  offset="0.7083" style="stop-color:#FF9400"/>
				<stop  offset="0.9982" style="stop-color:#FF6C00"/>
				<stop  offset="1" style="stop-color:#FF6C00"/>
			</radialGradient>
			<rect x="-0.58" y="-0.74" class="st4" width="17.12" height="5.76"/>
		</g>
		<path class="st5" d="M7.99,5.03c-1.61,0-2.91,1.3-2.91,2.91c0,1.61,1.3,2.91,2.91,2.91c1.61,0,2.91-1.3,2.91-2.91
			C10.9,6.33,9.59,5.03,7.99,5.03z M10.69,8.12c-0.07,0-0.13,0.06-0.13,0.14c0,0.06,0.04,0.11,0.1,0.13
			c-0.01,0.07-0.02,0.13-0.04,0.2L9.26,8.14L8.34,7.99c0-0.02,0-0.03,0-0.05l0.93,0.1l1.42-0.1C10.7,8,10.69,8.06,10.69,8.12z
			 M10.56,8.79C10.56,8.79,10.55,8.79,10.56,8.79c-0.08-0.02-0.15,0.02-0.17,0.1c-0.02,0.06,0.02,0.13,0.07,0.15
			c-0.03,0.06-0.06,0.13-0.09,0.19L9.16,8.46L8.32,8.08c0.01-0.02,0.01-0.03,0.02-0.05l0.88,0.32l1.41,0.25
			C10.6,8.66,10.58,8.72,10.56,8.79z M9.19,10.35C9.15,10.29,9.06,10.27,9,10.31c-0.06,0.03-0.08,0.1-0.05,0.16
			c-0.06,0.02-0.12,0.04-0.18,0.06l-0.32-1.4L8.12,8.27c0.02-0.01,0.03-0.01,0.04-0.02l0.39,0.85l0.81,1.18
			c-0.05,0.03-0.11,0.06-0.17,0.09C9.19,10.36,9.19,10.35,9.19,10.35z M8.48,10.59c-0.02-0.07-0.1-0.11-0.17-0.09
			c-0.06,0.02-0.1,0.08-0.09,0.14c-0.07,0.01-0.14,0.01-0.21,0.01l0.09-1.43L8.02,8.29c0.02,0,0.04,0,0.06-0.01l0.17,0.91l0.5,1.34
			c-0.09,0.03-0.18,0.05-0.27,0.06C8.48,10.59,8.48,10.59,8.48,10.59z M6.97,10.3c-0.06-0.01-0.13,0.02-0.15,0.08
			c-0.05-0.02-0.1-0.05-0.14-0.07l0.77-1.2l0.39-0.85c0.02,0.01,0.03,0.01,0.05,0.02L7.56,9.15L7.3,10.56
			c-0.08-0.02-0.16-0.05-0.23-0.07c0-0.01,0-0.01,0.01-0.02C7.09,10.39,7.04,10.32,6.97,10.3z M5.61,8.94
			c-0.04-0.05-0.1-0.07-0.16-0.05C5.43,8.83,5.41,8.77,5.39,8.71l1.39-0.32l0.87-0.34C7.66,8.07,7.66,8.09,7.67,8.1L6.83,8.49
			L5.66,9.31c-0.04-0.06-0.07-0.12-0.1-0.18c0.01,0,0.01,0,0.01-0.01C5.63,9.08,5.65,9,5.61,8.94z M5.29,7.71c0.01,0,0.01,0,0.02,0
			c0.07,0,0.13-0.07,0.13-0.14c0-0.06-0.05-0.11-0.11-0.12c0.01-0.06,0.02-0.11,0.04-0.17l1.36,0.43l0.92,0.16c0,0.02,0,0.03,0,0.05
			L6.7,7.82l-1.42,0.1C5.28,7.85,5.28,7.78,5.29,7.71z M5.43,7.05c0.01,0,0.01,0,0.02,0.01C5.52,7.07,5.59,7.02,5.6,6.95
			C5.62,6.89,5.58,6.83,5.53,6.8c0.03-0.06,0.05-0.11,0.08-0.17l1.2,0.76l0.85,0.38C7.65,7.8,7.65,7.81,7.64,7.83L6.77,7.51
			l-1.4-0.25C5.38,7.19,5.4,7.12,5.43,7.05z M6.81,5.53C6.85,5.59,6.93,5.6,6.99,5.56C7.05,5.52,7.06,5.45,7.04,5.4
			C7.1,5.38,7.15,5.36,7.21,5.34l0.32,1.38L7.86,7.6C7.85,7.6,7.83,7.61,7.82,7.62L7.43,6.76L6.62,5.6C6.68,5.56,6.74,5.53,6.79,5.5
			C6.8,5.51,6.8,5.52,6.81,5.53z M5.32,8.43c0.01,0,0.01,0,0.02,0c0.07-0.02,0.11-0.1,0.09-0.17C5.41,8.2,5.35,8.16,5.29,8.16
			C5.28,8.09,5.28,8.01,5.28,7.94L6.7,8.03l0.93-0.07c0,0.02,0,0.04,0.01,0.06L6.72,8.19l-1.34,0.5C5.36,8.61,5.34,8.52,5.32,8.43z
			 M7.9,7.58L7.73,6.66l-0.5-1.33C7.3,5.31,7.38,5.29,7.46,5.28c0,0.01,0,0.02,0.01,0.02c0.02,0.07,0.1,0.11,0.17,0.08
			C7.7,5.36,7.73,5.3,7.73,5.24c0.08-0.01,0.16-0.01,0.24-0.01L7.88,6.64l0.08,0.93C7.94,7.58,7.92,7.58,7.9,7.58z M8.33,5.37
			c0.06,0,0.11-0.04,0.13-0.1c0.07,0.01,0.13,0.02,0.19,0.04L8.21,6.66L8.05,7.58c-0.02,0-0.03,0-0.05-0.01l0.09-0.93l-0.1-1.41
			c0.07,0,0.14,0,0.21,0.01C8.2,5.31,8.26,5.37,8.33,5.37z M8.97,5.54c0.06,0.02,0.12-0.01,0.15-0.06C9.18,5.5,9.24,5.53,9.29,5.56
			L8.53,6.75L8.14,7.6C8.12,7.6,8.1,7.59,8.09,7.59l0.33-0.88l0.26-1.4c0.07,0.02,0.14,0.04,0.21,0.06C8.86,5.45,8.9,5.52,8.97,5.54
			z M9.55,5.87C9.6,5.9,9.67,5.89,9.71,5.85C9.78,5.9,9.84,5.95,9.89,6.01L8.83,6.95L8.22,7.66C8.2,7.65,8.19,7.63,8.17,7.62
			l0.54-0.77l0.6-1.29C9.37,5.61,9.44,5.65,9.5,5.69C9.46,5.75,9.49,5.83,9.55,5.87z M10.02,6.34c0.04,0.04,0.11,0.05,0.16,0.02
			c0.04,0.06,0.08,0.11,0.12,0.17L9.04,7.18L8.28,7.72C8.27,7.71,8.26,7.7,8.25,7.68L8.98,7.1l0.93-1.07
			c0.04,0.04,0.08,0.08,0.11,0.12C9.97,6.2,9.97,6.29,10.02,6.34z M10.36,6.91c0.03,0.05,0.1,0.08,0.15,0.06
			c0.02,0.06,0.04,0.12,0.06,0.17L9.19,7.46L8.32,7.8C8.32,7.78,8.31,7.77,8.3,7.76l0.85-0.39l1.17-0.81
			c0.03,0.06,0.07,0.12,0.1,0.18c0,0,0,0,0,0C10.35,6.76,10.33,6.85,10.36,6.91z M10.64,7.4C10.64,7.4,10.64,7.4,10.64,7.4
			c-0.08,0.02-0.12,0.1-0.1,0.17c0.02,0.06,0.08,0.1,0.14,0.1c0.01,0.08,0.01,0.17,0.01,0.25L9.27,7.83L8.34,7.9
			c0-0.02-0.01-0.04-0.01-0.06l0.92-0.17l1.33-0.5C10.61,7.24,10.63,7.32,10.64,7.4z M6.23,5.88c0,0.01,0.01,0.01,0.02,0.02
			C6.3,5.94,6.39,5.93,6.43,5.88c0.04-0.05,0.04-0.12,0.01-0.17c0.05-0.04,0.11-0.07,0.16-0.11l0.64,1.26l0.54,0.77
			C7.77,7.65,7.76,7.66,7.74,7.67L7.15,6.95L6.07,6.02C6.12,5.97,6.17,5.92,6.23,5.88z M6.06,6.04L7,7.1l0.72,0.6
			C7.7,7.71,7.69,7.73,7.68,7.75L6.91,7.21L5.62,6.62c0.04-0.07,0.08-0.13,0.12-0.2c0.01,0,0.01,0.01,0.02,0.01
			c0.07,0.03,0.15,0,0.18-0.06C5.97,6.31,5.95,6.24,5.9,6.21C5.95,6.15,6,6.09,6.06,6.04z M5.91,9.68c0.01,0,0.01-0.01,0.02-0.02
			c0.05-0.06,0.05-0.14-0.01-0.19C5.87,9.43,5.8,9.43,5.75,9.47C5.72,9.42,5.69,9.38,5.66,9.33l1.27-0.65l0.76-0.54
			C7.7,8.15,7.71,8.16,7.72,8.17L7,8.76L6.06,9.84C6.01,9.79,5.96,9.73,5.91,9.68z M6.07,9.85l1.07-0.94L7.75,8.2
			C7.77,8.21,7.78,8.23,7.8,8.24L7.27,9l-0.61,1.3c-0.08-0.04-0.15-0.09-0.22-0.14c0-0.01,0.01-0.01,0.01-0.02
			c0.03-0.07,0.01-0.15-0.06-0.18C6.33,9.93,6.26,9.94,6.23,9.99C6.17,9.95,6.12,9.9,6.07,9.85z M7.76,10.63c0,0,0-0.01,0-0.01
			c0-0.07-0.07-0.13-0.14-0.13c-0.06,0-0.11,0.05-0.13,0.11c-0.06-0.01-0.12-0.02-0.18-0.04L7.76,9.2l0.16-0.92
			c0.02,0,0.03,0,0.05,0.01L7.88,9.21l0.11,1.43c0,0,0,0,0,0C7.91,10.64,7.84,10.64,7.76,10.63z M9.76,9.98c0,0-0.01-0.01-0.01-0.01
			C9.7,9.92,9.61,9.92,9.56,9.97c-0.05,0.05-0.05,0.12-0.01,0.17c-0.06,0.04-0.11,0.08-0.17,0.11L8.73,8.99L8.19,8.22
			C8.21,8.21,8.22,8.2,8.24,8.19l0.59,0.72l1.09,0.93C9.87,9.89,9.81,9.94,9.76,9.98z M9.93,9.83L8.97,8.76l-0.71-0.6
			C8.27,8.15,8.29,8.13,8.3,8.11l0.77,0.53l1.3,0.6c-0.04,0.07-0.08,0.14-0.13,0.21c0,0-0.01-0.01-0.01-0.01
			c-0.07-0.04-0.15-0.01-0.18,0.05c-0.03,0.06-0.02,0.13,0.03,0.17C10.03,9.72,9.98,9.77,9.93,9.83z"/>
	</g>
</g>
</svg>
