<svg width="148" height="40" viewBox="0 0 148 40" fill="none" xmlns="http://www.w3.org/2000/svg">
<path d="M26.4191 18.371C26.0401 18.7523 25.7498 19.2125 25.569 19.7187C25.3882 20.225 25.3213 20.7649 25.373 21.3L25.355 21.282C25.4082 21.9119 25.3232 22.5457 25.1061 23.1394C24.889 23.733 24.5451 24.2721 24.0982 24.7191C23.6512 25.166 23.112 25.5101 22.5183 25.7271C21.9247 25.9442 21.2908 26.0292 20.661 25.976L20.6791 25.994C19.9257 25.9239 19.1689 26.0878 18.512 26.4635C17.8552 26.8392 17.3302 27.4083 17.0087 28.0933C16.6872 28.7783 16.5847 29.5457 16.7153 30.2911C16.846 31.0364 17.2033 31.7233 17.7386 32.2581C18.2739 32.7929 18.9611 33.1496 19.7065 33.2795C20.452 33.4095 21.2193 33.3063 21.904 32.9842C22.5887 32.662 23.1573 32.1366 23.5324 31.4794C23.9075 30.8222 24.0708 30.0654 24 29.312L24.019 29.33C23.9658 28.7002 24.0507 28.0663 24.2678 27.4726C24.4849 26.879 24.829 26.3399 25.2759 25.8929C25.7229 25.446 26.262 25.1019 26.8556 24.8849C27.4493 24.6678 28.0831 24.5828 28.713 24.636L28.694 24.618C29.3094 24.6733 29.929 24.5724 30.4951 24.3246C31.0611 24.0768 31.5554 23.6901 31.9322 23.2004C32.309 22.7107 32.5563 22.1337 32.6507 21.5231C32.7452 20.9124 32.6839 20.2878 32.4727 19.707C32.2615 19.1263 31.9071 18.6083 31.4424 18.201C30.9777 17.7937 30.4178 17.5103 29.8144 17.3771C29.211 17.2439 28.5837 17.2651 27.9907 17.4388C27.3977 17.6126 26.8582 17.9332 26.4221 18.371H26.4191Z" fill="#393B6A"/>
<path d="M19.0422 23.636L19.0232 23.618C19.5585 23.6719 20.0991 23.6062 20.606 23.4256C21.1128 23.245 21.5732 22.9541 21.9538 22.5738C22.3343 22.1935 22.6257 21.7333 22.8066 21.2266C22.9876 20.7199 23.0537 20.1794 23.0002 19.644L23.0192 19.662C22.966 19.0321 23.051 18.3983 23.268 17.8046C23.4851 17.211 23.8292 16.6719 24.2761 16.2249C24.7231 15.778 25.2622 15.4339 25.8558 15.2169C26.4495 14.9998 27.0833 14.9148 27.7132 14.968L27.6942 14.95C28.4477 15.0208 29.2046 14.8574 29.8618 14.4821C30.5191 14.1068 31.0445 13.538 31.3665 12.8531C31.6885 12.1682 31.7914 11.4007 31.6612 10.6552C31.531 9.90969 31.174 9.22251 30.6388 8.68737C30.1037 8.15224 29.4165 7.7952 28.671 7.66498C27.9255 7.53475 27.158 7.63766 26.4731 7.95968C25.7882 8.28169 25.2194 8.80714 24.8441 9.46435C24.4688 10.1215 24.3054 10.8785 24.3762 11.632L24.3582 11.613C24.4115 12.2429 24.3267 12.8768 24.1097 13.4705C23.8927 14.0643 23.5486 14.6035 23.1017 15.0505C22.6547 15.4974 22.1155 15.8415 21.5218 16.0585C20.928 16.2755 20.2941 16.3603 19.6642 16.307L19.6822 16.326C19.1469 16.2721 18.6062 16.3378 18.0994 16.5184C17.5926 16.6989 17.1322 16.9899 16.7516 17.3702C16.371 17.7505 16.0797 18.2107 15.8987 18.7174C15.7178 19.2241 15.6517 19.7646 15.7052 20.3L15.6872 20.282C15.7402 20.9118 15.6551 21.5456 15.438 22.1392C15.2208 22.7327 14.8768 23.2718 14.4299 23.7187C13.9829 24.1656 13.4439 24.5096 12.8503 24.7268C12.2568 24.9439 11.623 25.029 10.9932 24.976L11.0112 24.994C10.2577 24.9232 9.5007 25.0866 8.84349 25.4619C8.18629 25.8372 7.66084 26.406 7.33883 27.0909C7.01681 27.7758 6.91389 28.5433 7.04412 29.2888C7.17435 30.0343 7.53139 30.7215 8.06652 31.2566C8.60166 31.7918 9.28884 32.1488 10.0344 32.279C10.7799 32.4092 11.5474 32.3063 12.2323 31.9843C12.9171 31.6623 13.486 31.1369 13.8613 30.4797C14.2366 29.8224 14.4 29.0655 14.3292 28.312L14.3482 28.33C14.295 27.7001 14.38 27.0663 14.5971 26.4726C14.8141 25.879 15.1582 25.3399 15.6051 24.8929C16.0521 24.446 16.5912 24.1019 17.1848 23.8849C17.7785 23.6678 18.4123 23.5828 19.0422 23.636Z" fill="#393B6A"/>
<path d="M12.3402 21.6289C12.7192 21.2477 13.0094 20.7875 13.1901 20.2812C13.3707 19.7749 13.4373 19.2349 13.3852 18.6999L13.4042 18.7179C13.351 18.0879 13.436 17.4538 13.6532 16.86C13.8704 16.2662 14.2146 15.727 14.6618 15.28C15.109 14.8331 15.6483 14.4891 16.2422 14.2721C16.8361 14.0552 17.4702 13.9705 18.1002 14.0239L18.0812 14.0059C18.8344 14.0765 19.5911 13.913 20.248 13.5378C20.9049 13.1625 21.43 12.5938 21.7519 11.9092C22.0737 11.2245 22.1765 10.4573 22.0463 9.71203C21.9161 8.9668 21.5591 8.27988 21.0242 7.74494C20.4893 7.21 19.8023 6.85308 19.0571 6.72286C18.3119 6.59263 17.5446 6.69545 16.86 7.01727C16.1753 7.33909 15.6066 7.86426 15.2314 8.52116C14.8561 9.17806 14.6926 9.93472 14.7632 10.6879L14.7452 10.6699C14.7984 11.2998 14.7134 11.9337 14.4963 12.5273C14.2792 13.1209 13.9352 13.66 13.4883 14.107C13.0413 14.554 12.5022 14.898 11.9086 15.115C11.3149 15.3321 10.6811 15.4171 10.0512 15.3639L10.0692 15.3819C9.45378 15.3267 8.83437 15.4278 8.26839 15.6757C7.70241 15.9236 7.20816 16.3104 6.83145 16.8002C6.45474 17.2899 6.20776 17.8669 6.11338 18.4775C6.01901 19.0882 6.0803 19.7128 6.29157 20.2934C6.50284 20.8741 6.85727 21.392 7.322 21.7992C7.78673 22.2065 8.34673 22.4898 8.95011 22.623C9.55348 22.7561 10.1807 22.7348 10.7737 22.5611C11.3666 22.3873 11.9061 22.0667 12.3422 21.6289H12.3402Z" fill="#393B6A"/>
<path d="M43.3169 11.655H46.2869V26.108H43.3169V11.655Z" fill="#393B6A"/>
<path d="M47.9689 21.159C47.9648 20.1204 48.269 19.1038 48.843 18.2382C49.417 17.3726 50.235 16.6968 51.1934 16.2965C52.1518 15.8961 53.2074 15.7892 54.2266 15.9893C55.2458 16.1894 56.1827 16.6874 56.9186 17.4204C57.6545 18.1533 58.1563 19.0882 58.3605 20.1066C58.5647 21.125 58.462 22.1811 58.0655 23.1411C57.669 24.101 56.9965 24.9218 56.1332 25.4992C55.2698 26.0767 54.2546 26.385 53.2159 26.385C52.5265 26.3929 51.8424 26.2632 51.2036 26.0036C50.5648 25.744 49.9842 25.3597 49.4957 24.8732C49.0071 24.3866 48.6205 23.8075 48.3584 23.1698C48.0962 22.5321 47.9638 21.8485 47.9689 21.159ZM55.4929 21.159C55.4805 20.7113 55.3364 20.2772 55.0787 19.9109C54.8209 19.5447 54.4609 19.2625 54.0437 19.0998C53.6264 18.937 53.1705 18.9008 52.7328 18.9958C52.2951 19.0908 51.8951 19.3126 51.5828 19.6337C51.2706 19.9547 51.0598 20.3607 50.9771 20.8009C50.8943 21.241 50.943 21.6958 51.1173 22.1084C51.2916 22.521 51.5836 22.873 51.9568 23.1205C52.3301 23.368 52.7681 23.5 53.2159 23.5C53.5226 23.5082 53.8277 23.4527 54.112 23.3371C54.3962 23.2215 54.6534 23.0483 54.8673 22.8284C55.0812 22.6084 55.2473 22.3465 55.3549 22.0592C55.4626 21.7719 55.5096 21.4654 55.4929 21.159Z" fill="#393B6A"/>
<path d="M70.2999 16.2091V25.6091C70.2999 28.9351 67.7059 30.3411 65.0729 30.3411C64.1459 30.4105 63.2176 30.2232 62.3899 29.7999C61.5623 29.3765 60.8672 28.7334 60.3809 27.9411L62.9149 26.4761C63.1193 26.8891 63.445 27.2298 63.8483 27.4527C64.2517 27.6755 64.7135 27.7699 65.1719 27.7231C65.4649 27.7637 65.7633 27.7379 66.045 27.6476C66.3266 27.5573 66.5844 27.4048 66.7992 27.2015C67.014 26.9981 67.1803 26.7491 67.2859 26.4727C67.3914 26.1964 67.4334 25.8999 67.4089 25.6051V24.7001C67.0611 25.1256 66.6185 25.4637 66.1164 25.6872C65.6143 25.9107 65.0669 26.0134 64.5179 25.9871C63.2117 25.9459 61.9728 25.3981 61.0634 24.4595C60.154 23.521 59.6455 22.2654 59.6455 20.9586C59.6455 19.6518 60.154 18.3962 61.0634 17.4577C61.9728 16.5191 63.2117 15.9713 64.5179 15.9301C65.0669 15.9038 65.6143 16.0065 66.1164 16.23C66.6185 16.4535 67.0611 16.7916 67.4089 17.2171V16.2071L70.2999 16.2091ZM67.4099 20.9601C67.4299 20.4815 67.3061 20.0078 67.0546 19.6001C66.8031 19.1923 66.4353 18.8692 65.9986 18.6723C65.5619 18.4753 65.0763 18.4136 64.6042 18.495C64.1321 18.5764 63.6952 18.7972 63.3496 19.1291C63.0041 19.4609 62.7658 19.8885 62.6653 20.3569C62.5649 20.8253 62.6069 21.3131 62.7861 21.7574C62.9652 22.2017 63.2732 22.5823 63.6704 22.8501C64.0676 23.1179 64.5359 23.2607 65.0149 23.2601C65.327 23.2819 65.6401 23.2381 65.9342 23.1315C66.2283 23.0249 66.4968 22.8578 66.7224 22.6412C66.948 22.4245 67.1258 22.163 67.2442 21.8734C67.3626 21.5839 67.4191 21.2728 67.4099 20.9601Z" fill="#393B6A"/>
<path d="M71.9821 21.159C71.978 20.1204 72.2821 19.1038 72.8562 18.2382C73.4302 17.3726 74.2482 16.6968 75.2066 16.2965C76.165 15.8961 77.2206 15.7892 78.2398 15.9893C79.259 16.1894 80.1959 16.6874 80.9318 17.4204C81.6677 18.1533 82.1695 19.0882 82.3737 20.1066C82.5779 21.125 82.4752 22.1811 82.0787 23.1411C81.6822 24.101 81.0097 24.9218 80.1464 25.4992C79.283 26.0767 78.2678 26.385 77.2291 26.385C76.5397 26.3929 75.8555 26.2632 75.2168 26.0036C74.578 25.744 73.9974 25.3597 73.5089 24.8732C73.0203 24.3866 72.6337 23.8075 72.3716 23.1698C72.1094 22.5321 71.977 21.8485 71.9821 21.159ZM79.5061 21.159C79.4937 20.7113 79.3496 20.2772 79.0919 19.9109C78.8341 19.5447 78.4741 19.2625 78.0569 19.0998C77.6396 18.937 77.1836 18.9008 76.746 18.9958C76.3083 19.0908 75.9083 19.3126 75.596 19.6337C75.2838 19.9547 75.073 20.3607 74.9902 20.8009C74.9074 21.241 74.9562 21.6958 75.1305 22.1084C75.3048 22.521 75.5968 22.873 75.97 23.1205C76.3433 23.368 76.7812 23.5 77.2291 23.5C77.5358 23.5082 77.8409 23.4527 78.1251 23.3371C78.4094 23.2215 78.6666 23.0483 78.8805 22.8284C79.0944 22.6084 79.2605 22.3465 79.3681 22.0592C79.4758 21.7719 79.5228 21.4654 79.5061 21.159Z" fill="#393B6A"/>
<path d="M83.8608 13.556C83.8608 13.2036 83.9653 12.8591 84.1611 12.566C84.3569 12.273 84.6353 12.0446 84.9609 11.9097C85.2865 11.7748 85.6448 11.7395 85.9905 11.8083C86.3361 11.877 86.6537 12.0468 86.9029 12.296C87.1521 12.5452 87.3218 12.8627 87.3906 13.2084C87.4593 13.5541 87.424 13.9124 87.2892 14.238C87.1543 14.5636 86.9259 14.8419 86.6328 15.0377C86.3398 15.2335 85.9953 15.3381 85.6428 15.3381C85.1717 15.3334 84.7211 15.1441 84.3879 14.8109C84.0548 14.4777 83.8655 14.0272 83.8608 13.556ZM84.1608 16.209H87.1318V26.109H84.1568L84.1608 16.209Z" fill="#393B6A"/>
<path d="M99.9562 21.159C99.9905 21.8133 99.8952 22.4679 99.6756 23.0852C99.4561 23.7025 99.1167 24.2703 98.6769 24.756C98.2372 25.2416 97.7057 25.6356 97.1132 25.9152C96.5206 26.1947 95.8787 26.3544 95.2242 26.385C94.6738 26.415 94.1237 26.3222 93.6136 26.1133C93.1035 25.9043 92.6464 25.5845 92.2752 25.177V30.068H89.3052V16.209H92.2752V17.139C92.6465 16.7318 93.1038 16.4122 93.6138 16.2035C94.1239 15.9947 94.6739 15.902 95.2242 15.932C95.8788 15.9625 96.5209 16.1221 97.1136 16.4017C97.7063 16.6813 98.2378 17.0753 98.6776 17.5611C99.1174 18.0469 99.4568 18.6149 99.6762 19.2324C99.8956 19.8498 99.9908 20.5046 99.9562 21.159ZM96.9862 21.159C96.9746 20.6957 96.8266 20.2461 96.5607 19.8664C96.2948 19.4868 95.9229 19.194 95.4915 19.0248C95.06 18.8555 94.5882 18.8172 94.1351 18.9148C93.682 19.0123 93.2678 19.2413 92.9442 19.5731C92.6206 19.905 92.4021 20.3248 92.316 20.7803C92.2299 21.2357 92.28 21.7063 92.4601 22.1334C92.6401 22.5605 92.9422 22.9249 93.3284 23.1812C93.7146 23.4374 94.1677 23.5741 94.6312 23.574C94.9494 23.5882 95.267 23.5349 95.5632 23.4177C95.8593 23.3006 96.1274 23.1221 96.3497 22.8941C96.5721 22.666 96.7437 22.3936 96.8534 22.0946C96.9631 21.7956 97.0084 21.4767 96.9862 21.159Z" fill="#393B6A"/>
<path d="M109.121 23.138C109.121 25.415 107.142 26.385 105.004 26.385C104.14 26.4632 103.273 26.2806 102.514 25.8605C101.755 25.4405 101.14 24.8025 100.747 24.029L103.32 22.564C103.424 22.9215 103.648 23.2326 103.953 23.4451C104.259 23.6577 104.629 23.759 105 23.732C105.712 23.732 106.069 23.514 106.069 23.119C106.069 22.029 101.198 22.604 101.198 19.179C101.198 17.02 103.02 15.932 105.079 15.932C105.853 15.9075 106.619 16.0911 107.298 16.4636C107.977 16.8362 108.544 17.384 108.939 18.05L106.405 19.416C106.294 19.1567 106.109 18.9358 105.873 18.7809C105.637 18.626 105.361 18.544 105.079 18.545C104.564 18.545 104.247 18.745 104.247 19.099C104.251 20.228 109.121 19.475 109.121 23.138Z" fill="#393B6A"/>
<path d="M119.97 16.209V26.109H117V25.178C116.657 25.5888 116.222 25.9125 115.73 26.1225C115.238 26.3325 114.704 26.4228 114.17 26.386C112.17 26.386 110.47 24.961 110.47 22.286V16.209H113.44V21.851C113.415 22.0868 113.442 22.3252 113.519 22.5495C113.595 22.7739 113.72 22.9789 113.884 23.1502C114.048 23.3215 114.247 23.455 114.468 23.5415C114.688 23.628 114.925 23.6654 115.162 23.651C116.251 23.651 117.003 23.018 117.003 21.612V16.212L119.97 16.209Z" fill="#393B6A"/>
<path d="M137 20.03V26.108H134.03V20.287C134.03 19.297 133.555 18.664 132.605 18.664C131.615 18.664 131.06 19.357 131.06 20.525V26.108H128.091V20.287C128.091 19.297 127.616 18.664 126.665 18.664C125.675 18.664 125.121 19.357 125.121 20.525V26.108H122.151V16.208H125.121V17.118C125.429 16.7143 125.833 16.3941 126.296 16.1868C126.76 15.9794 127.268 15.8915 127.774 15.931C128.282 15.9061 128.788 16.0134 129.243 16.2423C129.697 16.4711 130.084 16.8139 130.367 17.237C130.696 16.7943 131.132 16.4423 131.634 16.2139C132.136 15.9855 132.688 15.8882 133.238 15.931C135.511 15.932 137 17.555 137 20.03Z" fill="#393B6A"/>
<path d="M139.512 16.148C140.729 16.148 141.716 15.1612 141.716 13.944C141.716 12.7268 140.729 11.74 139.512 11.74C138.295 11.74 137.308 12.7268 137.308 13.944C137.308 15.1612 138.295 16.148 139.512 16.148Z" fill="#393B6A"/>
</svg>
