<svg width="148" height="40" viewBox="0 0 148 40" fill="none" xmlns="http://www.w3.org/2000/svg">
<path d="M46.7183 26.597H56.1091V23.7872H50.056V13.2038H46.7183V26.597Z" fill="#393B6A"/>
<path d="M61.6729 24.7238C60.334 24.7238 59.6363 23.5625 59.6363 21.8204C59.6363 20.0784 60.334 18.8983 61.6729 18.8983C63.0118 18.8983 63.7283 20.0784 63.7283 21.8204C63.7283 23.5625 63.0118 24.7238 61.6729 24.7238ZM61.6918 26.8967C64.8032 26.8967 66.8398 24.7051 66.8398 21.8204C66.8398 18.9358 64.8032 16.7441 61.6918 16.7441C58.5992 16.7441 56.5249 18.9358 56.5249 21.8204C56.5249 24.7051 58.5992 26.8967 61.6918 26.8967Z" fill="#393B6A"/>
<path d="M72.2249 29.9125C73.6581 29.9125 74.9215 29.5941 75.7701 28.8448C76.5432 28.1517 77.0524 27.1028 77.0524 25.6604V17.0064H74.1106V18.0366H74.0729C73.5072 17.2312 72.6398 16.7254 71.3575 16.7254C68.9627 16.7254 67.3032 18.711 67.3032 21.5207C67.3032 24.4616 69.3209 26.0725 71.4895 26.0725C72.6587 26.0725 73.3941 25.6042 73.9598 24.9674H74.0352V25.9227C74.0352 27.084 73.4884 27.7584 72.1872 27.7584C71.1689 27.7584 70.6598 27.3275 70.4901 26.8218H67.5107C67.8124 28.8261 69.5661 29.9125 72.2249 29.9125ZM72.2061 23.806C71.0558 23.806 70.3015 22.8694 70.3015 21.4271C70.3015 19.966 71.0558 19.0294 72.2061 19.0294C73.4884 19.0294 74.1672 20.1158 74.1672 21.4083C74.1672 22.757 73.5449 23.806 72.2061 23.806Z" fill="#393B6A"/>
<path d="M83.1011 24.7238C81.7623 24.7238 81.0646 23.5625 81.0646 21.8204C81.0646 20.0784 81.7623 18.8983 83.1011 18.8983C84.44 18.8983 85.1566 20.0784 85.1566 21.8204C85.1566 23.5625 84.44 24.7238 83.1011 24.7238ZM83.12 26.8967C86.2314 26.8967 88.2676 24.7051 88.2676 21.8204C88.2676 18.9358 86.2314 16.7441 83.12 16.7441C80.0274 16.7441 77.9531 18.9358 77.9531 21.8204C77.9531 24.7051 80.0274 26.8967 83.12 26.8967Z" fill="#393B6A"/>
<path d="M89.166 26.597H92.2397V17.0063H89.166V26.597ZM89.166 15.6764H92.2397V13.2038H89.166V15.6764Z" fill="#393B6A"/>
<path d="M93.5728 29.7627H96.6465V25.6042H96.6842C97.2876 26.4097 98.1739 26.8967 99.4185 26.8967C101.945 26.8967 103.624 24.9112 103.624 21.8017C103.624 18.917 102.058 16.7254 99.4939 16.7254C98.1739 16.7254 97.231 17.3061 96.571 18.1677H96.5145V17.0064H93.5728V29.7627ZM98.6265 24.5365C97.3065 24.5365 96.5522 23.4688 96.5522 21.9141C96.5522 20.3594 97.231 19.1793 98.5699 19.1793C99.8899 19.1793 100.512 20.2657 100.512 21.9141C100.512 23.5437 99.7956 24.5365 98.6265 24.5365Z" fill="#393B6A"/>
<path d="M108.628 26.8967C111.155 26.8967 113.022 25.8103 113.022 23.7123C113.022 21.2585 111.023 20.8276 109.326 20.5467C108.1 20.3219 107.006 20.2282 107.006 19.5539C107.006 18.9545 107.591 18.6735 108.345 18.6735C109.194 18.6735 109.778 18.9357 109.891 19.7974H112.72C112.569 17.9055 111.098 16.7254 108.364 16.7254C106.082 16.7254 104.197 17.7744 104.197 19.7974C104.197 22.0452 105.988 22.4948 107.666 22.7757C108.949 23.0005 110.118 23.0942 110.118 23.9558C110.118 24.574 109.533 24.9112 108.609 24.9112C107.591 24.9112 106.95 24.4429 106.837 23.4875H103.933C104.027 25.6042 105.799 26.8967 108.628 26.8967Z" fill="#393B6A"/>
<path d="M117.197 26.878C118.536 26.878 119.384 26.3535 120.082 25.4169H120.139V26.597H123.08V17.0063H120.007V22.3636C120.007 23.5063 119.366 24.293 118.31 24.293C117.329 24.293 116.858 23.7123 116.858 22.6633V17.0063H113.803V23.3002C113.803 25.4356 114.972 26.878 117.197 26.878Z" fill="#393B6A"/>
<path d="M124.417 26.597H127.491V21.221C127.491 20.0784 128.057 19.2729 129.019 19.2729C129.943 19.2729 130.376 19.8723 130.376 20.9026V26.597H133.45V21.221C133.45 20.0784 133.997 19.2729 134.977 19.2729C135.901 19.2729 136.335 19.8723 136.335 20.9026V26.597H139.409V20.3594C139.409 18.2052 138.315 16.7254 136.128 16.7254C134.883 16.7254 133.846 17.2499 133.092 18.4113H133.054C132.564 17.381 131.602 16.7254 130.339 16.7254C128.943 16.7254 128.019 17.381 127.416 18.3738H127.359V17.0064H124.417V26.597Z" fill="#393B6A"/>
<path d="M27.9651 5.54292L24.8748 4.7204L22.2707 14.3747L19.9196 5.65873L16.8293 6.48126L19.3695 15.8982L13.0424 9.61326L10.7802 11.8604L17.7202 18.7543L9.07754 16.4539L8.24951 19.5236L17.6927 22.0371C17.5846 21.5738 17.5274 21.0912 17.5274 20.5953C17.5274 17.0849 20.3921 14.2393 23.9259 14.2393C27.4598 14.2393 30.3245 17.0849 30.3245 20.5953C30.3245 21.088 30.268 21.5677 30.1612 22.0282L38.7433 24.3124L39.5713 21.2428L30.0906 18.7193L38.7338 16.4187L37.9058 13.3491L28.4254 15.8724L34.7525 9.58746L32.4902 7.34028L25.6465 14.1385L27.9651 5.54292Z" fill="#393B6A"/>
<path d="M30.1528 22.0639C29.8879 23.1766 29.3285 24.1761 28.561 24.977L34.7784 31.1531L37.0406 28.9059L30.1528 22.0639Z" fill="#393B6A"/>
<path d="M28.4978 25.0416C27.7211 25.8297 26.7395 26.4178 25.6387 26.7208L27.9011 35.108L30.9913 34.2854L28.4978 25.0416Z" fill="#393B6A"/>
<path d="M25.5233 26.7515C25.0126 26.882 24.4773 26.9513 23.9257 26.9513C23.3347 26.9513 22.7623 26.8717 22.219 26.7227L19.9546 35.1174L23.0448 35.9399L25.5233 26.7515Z" fill="#393B6A"/>
<path d="M22.11 26.6916C21.0261 26.3735 20.0619 25.7779 19.301 24.9876L13.0684 31.1788L15.3306 33.426L22.11 26.6916Z" fill="#393B6A"/>
<path d="M19.2489 24.9329C18.5011 24.1376 17.9563 23.1514 17.6971 22.0559L9.08691 24.3477L9.91494 27.4173L19.2489 24.9329Z" fill="#393B6A"/>
</svg>
