<svg width="139" height="40" viewBox="0 0 139 40" fill="none" xmlns="http://www.w3.org/2000/svg">
<path d="M43.1826 26.5104H52.6739V23.6304H46.556V12.7824H43.1826V26.5104Z" fill="#393B6A"/>
<path d="M58.2978 24.5904C56.9446 24.5904 56.2394 23.4 56.2394 21.6144C56.2394 19.8288 56.9446 18.6192 58.2978 18.6192C59.651 18.6192 60.3752 19.8288 60.3752 21.6144C60.3752 23.4 59.651 24.5904 58.2978 24.5904ZM58.3168 26.8176C61.4615 26.8176 63.5199 24.5712 63.5199 21.6144C63.5199 18.6576 61.4615 16.4112 58.3168 16.4112C55.1912 16.4112 53.0947 18.6576 53.0947 21.6144C53.0947 24.5712 55.1912 26.8176 58.3168 26.8176Z" fill="#393B6A"/>
<path d="M68.9626 29.9088C70.4111 29.9088 71.688 29.5824 72.5457 28.8144C73.3271 28.104 73.8417 27.0288 73.8417 25.5504V16.68H70.8685V17.736H70.8304C70.2586 16.9104 69.3819 16.392 68.0859 16.392C65.6655 16.392 63.9883 18.4272 63.9883 21.3072C63.9883 24.3216 66.0276 25.9728 68.2193 25.9728C69.401 25.9728 70.1443 25.4928 70.716 24.84H70.7923V25.8192C70.7923 27.0096 70.2396 27.7008 68.9245 27.7008C67.8953 27.7008 67.3808 27.2592 67.2092 26.7408H64.1979C64.5029 28.7952 66.2753 29.9088 68.9626 29.9088ZM68.9436 23.6496C67.781 23.6496 67.0186 22.6896 67.0186 21.2112C67.0186 19.7136 67.781 18.7536 68.9436 18.7536C70.2396 18.7536 70.9257 19.8672 70.9257 21.192C70.9257 22.5744 70.2967 23.6496 68.9436 23.6496Z" fill="#393B6A"/>
<path d="M79.955 24.5904C78.6018 24.5904 77.8967 23.4 77.8967 21.6144C77.8967 19.8288 78.6018 18.6192 79.955 18.6192C81.3082 18.6192 82.0324 19.8288 82.0324 21.6144C82.0324 23.4 81.3082 24.5904 79.955 24.5904ZM79.9741 26.8176C83.1188 26.8176 85.1771 24.5712 85.1771 21.6144C85.1771 18.6576 83.1188 16.4112 79.9741 16.4112C76.8484 16.4112 74.752 18.6576 74.752 21.6144C74.752 24.5712 76.8484 26.8176 79.9741 26.8176Z" fill="#393B6A"/>
<path d="M86.084 26.5104H89.1906V16.68H86.084V26.5104ZM86.084 15.3168H89.1906V12.7824H86.084V15.3168Z" fill="#393B6A"/>
<path d="M90.5396 29.7552H93.6461V25.4928H93.6843C94.2941 26.3184 95.1899 26.8176 96.4478 26.8176C99.0017 26.8176 100.698 24.7824 100.698 21.5952C100.698 18.6384 99.116 16.392 96.524 16.392C95.1899 16.392 94.237 16.9872 93.5699 17.8704H93.5127V16.68H90.5396V29.7552ZM95.6473 24.3984C94.3132 24.3984 93.5508 23.304 93.5508 21.7104C93.5508 20.1168 94.237 18.9072 95.5901 18.9072C96.9243 18.9072 97.5532 20.0208 97.5532 21.7104C97.5532 23.3808 96.829 24.3984 95.6473 24.3984Z" fill="#393B6A"/>
<path d="M105.755 26.8176C108.309 26.8176 110.196 25.704 110.196 23.5536C110.196 21.0384 108.176 20.5968 106.461 20.3088C105.222 20.0784 104.116 19.9824 104.116 19.2912C104.116 18.6768 104.707 18.3888 105.47 18.3888C106.327 18.3888 106.918 18.6576 107.032 19.5408H109.891C109.739 17.6016 108.252 16.392 105.489 16.392C103.182 16.392 101.277 17.4672 101.277 19.5408C101.277 21.8448 103.087 22.3056 104.783 22.5936C106.079 22.824 107.261 22.92 107.261 23.8032C107.261 24.4368 106.67 24.7824 105.736 24.7824C104.707 24.7824 104.059 24.3024 103.945 23.3232H101.01C101.105 25.4928 102.897 26.8176 105.755 26.8176Z" fill="#393B6A"/>
<path d="M114.416 26.7984C115.77 26.7984 116.627 26.2608 117.332 25.3008H117.39V26.5104H120.363V16.68H117.256V22.1712C117.256 23.3424 116.608 24.1488 115.541 24.1488C114.55 24.1488 114.073 23.5536 114.073 22.4784V16.68H110.986V23.1312C110.986 25.32 112.167 26.7984 114.416 26.7984Z" fill="#393B6A"/>
<path d="M121.713 26.5104H124.82V21C124.82 19.8288 125.392 19.0032 126.364 19.0032C127.298 19.0032 127.736 19.6176 127.736 20.6736V26.5104H130.843V21C130.843 19.8288 131.395 19.0032 132.386 19.0032C133.32 19.0032 133.759 19.6176 133.759 20.6736V26.5104H136.865V20.1168C136.865 17.9088 135.76 16.392 133.549 16.392C132.291 16.392 131.243 16.9296 130.48 18.12H130.442C129.947 17.064 128.975 16.392 127.698 16.392C126.287 16.392 125.354 17.064 124.744 18.0816H124.687V16.68H121.713V26.5104Z" fill="#393B6A"/>
<path fill-rule="evenodd" clip-rule="evenodd" d="M18.4258 36.1104C27.1974 36.1104 34.3082 28.9469 34.3082 20.1104C34.3082 11.2739 27.1974 4.11041 18.4258 4.11041C9.65421 4.11041 2.54346 11.2739 2.54346 20.1104C2.54346 28.9469 9.65421 36.1104 18.4258 36.1104ZM23.3806 11.5639C23.6217 10.7009 22.7904 10.1905 22.0311 10.7355L11.4321 18.3421C10.6087 18.933 10.7382 20.1104 11.6267 20.1104H14.4177V20.0886H19.8572L15.425 21.6641L13.4711 28.6569C13.2299 29.52 14.0612 30.0303 14.8205 29.4853L25.4195 21.8788C26.243 21.2878 26.1134 20.1104 25.225 20.1104H20.9925L23.3806 11.5639Z" fill="#393B6A"/>
</svg>
